<?xml version="1.0" encoding="UTF-8" standalone="no"?>
<!-- Created with Inkscape (http://www.inkscape.org/) -->

<svg
   width="487mm"
   height="372mm"
   viewBox="0 0 487 372"
   version="1.1"
   id="svg2524"
   inkscape:export-filename="C:\Users\Pedro\Desktop\Derrota Ciudad.png"
   inkscape:export-xdpi="96"
   inkscape:export-ydpi="96"
   inkscape:version="1.1.1 (3bf5ae0d25, 2021-09-20)"
   sodipodi:docname="Derrota Victoria Ciudad.svg"
   xmlns:inkscape="http://www.inkscape.org/namespaces/inkscape"
   xmlns:sodipodi="http://sodipodi.sourceforge.net/DTD/sodipodi-0.dtd"
   xmlns="http://www.w3.org/2000/svg"
   xmlns:svg="http://www.w3.org/2000/svg">
  <sodipodi:namedview
     id="namedview2526"
     pagecolor="#ffffff"
     bordercolor="#999999"
     borderopacity="1"
     inkscape:pageshadow="0"
     inkscape:pageopacity="0"
     inkscape:pagecheckerboard="true"
     inkscape:document-units="mm"
     showgrid="false"
     inkscape:showpageshadow="true"
     showborder="false"
     borderlayer="true"
     inkscape:zoom="0.64"
     inkscape:cx="1135.1563"
     inkscape:cy="516.40625"
     inkscape:window-width="1920"
     inkscape:window-height="1017"
     inkscape:window-x="-8"
     inkscape:window-y="-8"
     inkscape:window-maximized="1"
     inkscape:current-layer="layer1" />
  <defs
     id="defs2521" />
  <g
     inkscape:label="Capa 1"
     inkscape:groupmode="layer"
     id="layer1">
    <rect
       style="fill:#7a7a7a;fill-opacity:1;stroke:#000000;stroke-width:0.130289;stroke-linecap:square;stroke-linejoin:round;stroke-miterlimit:4;stroke-dasharray:none;stroke-opacity:1;paint-order:fill markers stroke"
       id="rect74664"
       width="0.54704601"
       height="2.0963717"
       x="121.35383"
       y="169.29324"
       transform="matrix(0.66839011,-0.7438109,0.29446895,0.95566105,0,0)"
       inkscape:transform-center-x="0.52728422"
       inkscape:transform-center-y="-0.14843828" />
    <rect
       style="fill:#7a7a7a;fill-opacity:1;stroke:#000000;stroke-width:0.104905;stroke-linecap:square;stroke-linejoin:round;stroke-miterlimit:4;stroke-dasharray:none;stroke-opacity:1;paint-order:fill markers stroke"
       id="rect74254"
       width="0.63671732"
       height="2.183563"
       x="148.56239"
       y="16.165426"
       transform="matrix(0.92452767,0.38111493,-0.39533946,0.91853509,0,0)" />
    <path
       id="rect57943"
       style="fill:#1e1d19;stroke:#000000;stroke-width:0.871788;stroke-linecap:square;stroke-linejoin:round;stroke-opacity:0;paint-order:fill markers stroke"
       d="m 138.16793,71.981484 c -4.6082,0.119658 -8.01902,1.420652 -13.01953,2.37499 l 8.47365,35.463616 h 15.51867 z"
       sodipodi:nodetypes="ccccc" />
    <rect
       style="fill:#e8e8e8;fill-opacity:1;stroke:#000000;stroke-width:0.482407;stroke-linecap:square;stroke-linejoin:round;stroke-miterlimit:4;stroke-dasharray:none;stroke-opacity:1;paint-order:fill markers stroke"
       id="rect59746"
       width="3.8418114"
       height="5.0977449"
       x="106.65734"
       y="102.02081"
       transform="matrix(0.97626841,-0.21656407,0.23048913,0.9730749,0,0)" />
    <rect
       style="fill:#e8e8e8;fill-opacity:1;stroke:#000000;stroke-width:0.482407;stroke-linecap:square;stroke-linejoin:round;stroke-miterlimit:4;stroke-dasharray:none;stroke-opacity:1;paint-order:fill markers stroke"
       id="rect59746-0"
       width="3.8418114"
       height="5.0977449"
       x="107.19476"
       y="117.83029"
       transform="matrix(0.97626841,-0.21656407,0.23048913,0.9730749,0,0)" />
    <rect
       style="fill:#e8e8e8;fill-opacity:1;stroke:#000000;stroke-width:0.482407;stroke-linecap:square;stroke-linejoin:round;stroke-miterlimit:4;stroke-dasharray:none;stroke-opacity:1;paint-order:fill markers stroke"
       id="rect59746-5"
       width="3.8418114"
       height="5.0977449"
       x="107.30618"
       y="124.87089"
       transform="matrix(0.97626841,-0.21656407,0.23048913,0.9730749,0,0)" />
    <rect
       style="fill:#e8e8e8;fill-opacity:1;stroke:#000000;stroke-width:0.482407;stroke-linecap:square;stroke-linejoin:round;stroke-miterlimit:4;stroke-dasharray:none;stroke-opacity:1;paint-order:fill markers stroke"
       id="rect59746-2"
       width="3.8418114"
       height="5.0977449"
       x="113.81915"
       y="125.10858"
       transform="matrix(0.97626841,-0.21656407,0.23048913,0.9730749,0,0)" />
    <rect
       style="fill:#e8e8e8;fill-opacity:1;stroke:#000000;stroke-width:0.482407;stroke-linecap:square;stroke-linejoin:round;stroke-miterlimit:4;stroke-dasharray:none;stroke-opacity:1;paint-order:fill markers stroke"
       id="rect59746-51"
       width="3.8418114"
       height="5.0977449"
       x="113.28516"
       y="117.91014"
       transform="matrix(0.97626841,-0.21656407,0.23048913,0.9730749,0,0)" />
    <rect
       style="fill:#e8e8e8;fill-opacity:1;stroke:#000000;stroke-width:0.482407;stroke-linecap:square;stroke-linejoin:round;stroke-miterlimit:4;stroke-dasharray:none;stroke-opacity:1;paint-order:fill markers stroke"
       id="rect59746-7"
       width="3.8418114"
       height="5.0977449"
       x="112.92284"
       y="109.98457"
       transform="matrix(0.97626841,-0.21656407,0.23048913,0.9730749,0,0)" />
    <rect
       style="fill:#e8e8e8;fill-opacity:1;stroke:#000000;stroke-width:0.482407;stroke-linecap:square;stroke-linejoin:round;stroke-miterlimit:4;stroke-dasharray:none;stroke-opacity:1;paint-order:fill markers stroke"
       id="rect59746-4"
       width="3.8418114"
       height="5.0977449"
       x="112.31087"
       y="102.00344"
       transform="matrix(0.97626841,-0.21656407,0.23048913,0.9730749,0,0)" />
    <rect
       style="fill:#e8e8e8;fill-opacity:1;stroke:#000000;stroke-width:0.482407;stroke-linecap:square;stroke-linejoin:round;stroke-miterlimit:4;stroke-dasharray:none;stroke-opacity:1;paint-order:fill markers stroke"
       id="rect59746-3"
       width="3.8418114"
       height="5.0977449"
       x="107.05347"
       y="110.08147"
       transform="matrix(0.97626841,-0.21656407,0.23048913,0.9730749,0,0)" />
    <path
       id="rect60944"
       style="fill:#472704;stroke:#2d1700;stroke-width:0.404442;stroke-linecap:square;stroke-linejoin:round;paint-order:fill markers stroke"
       d="m 141.65633,102.96806 -3.25585,0.72835 2.05004,5.97526 3.61863,-0.004 z"
       sodipodi:nodetypes="ccccc" />
    <ellipse
       style="fill:#fadc03;fill-opacity:1;stroke:#000000;stroke-width:0.0323223;stroke-linecap:square;stroke-linejoin:round;stroke-miterlimit:4;stroke-dasharray:none;stroke-opacity:1;paint-order:fill markers stroke"
       id="path62551"
       cx="-140.40291"
       cy="106.84695"
       rx="0.29508045"
       ry="0.32944474"
       transform="scale(-1,1)" />
    <path
       id="path65480"
       style="fill:#7a7a7a;stroke:#000000;stroke-width:0.0561413;stroke-linecap:square;stroke-linejoin:round;paint-order:fill markers stroke"
       d="m 129.5426,80.076164 c 0.165,0.73935 0.40899,0.5307 0.94981,0.46057 0.56085,-0.0727 1.48765,-0.0385 1.1804,-1.00721 -0.22932,-0.72303 -0.72247,-0.88542 -1.27314,-0.86777 -0.55067,0.0177 -1.02205,0.67514 -0.85707,1.41441 z"
       sodipodi:nodetypes="sssss" />
    <ellipse
       style="fill:#7a7a7a;fill-opacity:1;stroke:#000000;stroke-width:0.0499878;stroke-linecap:square;stroke-linejoin:round;stroke-miterlimit:4;stroke-dasharray:none;stroke-opacity:1;paint-order:fill markers stroke"
       id="path64114"
       cx="-130.23358"
       cy="78.442406"
       rx="0.64621043"
       ry="0.62536055"
       transform="scale(-1,1)" />
    <path
       id="path65480-8"
       style="fill:#7a7a7a;stroke:#000000;stroke-width:0.0561413;stroke-linecap:square;stroke-linejoin:round;paint-order:fill markers stroke"
       d="m 137.42617,86.482524 c 0.16499,0.73935 0.40898,0.5307 0.94981,0.46057 0.56084,-0.0727 1.48765,-0.0385 1.18039,-1.00721 -0.22932,-0.72303 -0.72247,-0.88542 -1.27314,-0.86777 -0.55067,0.0177 -1.02204,0.67514 -0.85706,1.41441 z"
       sodipodi:nodetypes="sssss" />
    <ellipse
       style="fill:#7a7a7a;fill-opacity:1;stroke:#000000;stroke-width:0.0499878;stroke-linecap:square;stroke-linejoin:round;stroke-miterlimit:4;stroke-dasharray:none;stroke-opacity:1;paint-order:fill markers stroke"
       id="path64114-1"
       cx="-138.11714"
       cy="84.848763"
       rx="0.64621043"
       ry="0.62536055"
       transform="scale(-1,1)" />
    <path
       id="path65480-5"
       style="fill:#7a7a7a;stroke:#000000;stroke-width:0.0561413;stroke-linecap:square;stroke-linejoin:round;paint-order:fill markers stroke"
       d="m 133.51412,95.450584 c 0.16499,0.73935 0.40898,0.5307 0.94981,0.46057 0.56085,-0.0727 1.48764,-0.0385 1.1804,-1.00721 -0.22932,-0.72303 -0.72247,-0.88542 -1.27314,-0.86777 -0.55068,0.0177 -1.02205,0.67514 -0.85707,1.41441 z"
       sodipodi:nodetypes="sssss" />
    <ellipse
       style="fill:#7a7a7a;fill-opacity:1;stroke:#000000;stroke-width:0.0499878;stroke-linecap:square;stroke-linejoin:round;stroke-miterlimit:4;stroke-dasharray:none;stroke-opacity:1;paint-order:fill markers stroke"
       id="path64114-5"
       cx="-134.20509"
       cy="93.816826"
       rx="0.64621043"
       ry="0.62536055"
       transform="scale(-1,1)" />
    <path
       id="path65480-3"
       style="fill:#7a7a7a;stroke:#000000;stroke-width:0.0561413;stroke-linecap:square;stroke-linejoin:round;paint-order:fill markers stroke"
       d="m 141.75507,101.03624 c 0.165,0.73934 0.40899,0.53069 0.94981,0.46056 0.56085,-0.0727 1.48765,-0.0385 1.1804,-1.00721 -0.22933,-0.723034 -0.72247,-0.885414 -1.27314,-0.867764 -0.55067,0.0177 -1.02205,0.675134 -0.85707,1.414414 z"
       sodipodi:nodetypes="sssss" />
    <ellipse
       style="fill:#7a7a7a;fill-opacity:1;stroke:#000000;stroke-width:0.0499878;stroke-linecap:square;stroke-linejoin:round;stroke-miterlimit:4;stroke-dasharray:none;stroke-opacity:1;paint-order:fill markers stroke"
       id="path64114-3"
       cx="-142.44604"
       cy="99.402473"
       rx="0.64621043"
       ry="0.62536055"
       transform="scale(-1,1)" />
    <path
       id="path66486"
       style="fill:#7a7a7a;stroke:#000000;stroke-width:0.0499878;stroke-linecap:square;stroke-linejoin:round;paint-order:fill markers stroke"
       d="m 129.55924,78.659254 c 0,0.2228 -0.0326,-0.63886 0.50753,-0.63886 0.10219,0 0.2416,0.43988 0.32695,0.46674 0.0417,0.0131 0.07,-0.35553 0.10745,-0.3389 0.29129,0.12934 0.4189,0.29806 0.4189,0.138 0,-0.0538 -0.14803,-0.12351 -0.12614,-0.16765 0.0365,-0.0736 0.26139,0.0497 0.16615,-0.0815 -0.0666,-0.0918 -0.56595,-0.34265 -0.91034,-0.26397 -0.52568,0.12011 -0.49051,0.66334 -0.49052,0.88614 z"
       sodipodi:nodetypes="ssssssssss" />
    <path
       id="path68407"
       style="fill:#7a7a7a;stroke:#000000;stroke-width:0.0499878;stroke-linecap:square;stroke-linejoin:round;paint-order:fill markers stroke"
       d="m 133.52367,93.762154 c 0,0.10604 0.2483,-0.19589 0.5645,-0.19589 0.16398,0 0.26095,-0.13714 0.40892,-0.14205 0.13734,-0.004 0.33194,0.12522 0.33195,0.0742 0,-0.0354 -0.14549,-0.29037 -0.21012,-0.30283 -0.0377,-0.007 -0.1476,0.0584 -0.19771,0.0321 -0.0622,-0.0327 -0.11837,-0.14384 -0.19699,-0.15495 -0.0752,-0.0106 -0.20002,0.11923 -0.27233,0.10959 -0.13466,-0.0179 -0.28754,0.20882 -0.42231,0.22469 -0.19295,0.0227 -0.006,0.28648 -0.006,0.3552 z"
       sodipodi:nodetypes="ssssssssss" />
    <path
       id="path68407-4"
       style="fill:#7a7a7a;stroke:#000000;stroke-width:0.0499878;stroke-linecap:square;stroke-linejoin:round;paint-order:fill markers stroke"
       d="m 141.91106,99.401946 c 0.0167,-0.10481 0.0783,-0.28366 0.39444,-0.28366 0.16399,0 0.26095,-0.13714 0.40892,-0.14204 0.13734,-0.004 0.33194,0.12521 0.33195,0.0742 0,-0.0354 -0.14549,-0.29037 -0.21011,-0.30283 -0.0378,-0.007 -0.1476,0.0584 -0.19772,0.0321 -0.0621,-0.0327 -0.11837,-0.14384 -0.19699,-0.15496 -0.0752,-0.0106 -0.20001,0.11924 -0.27233,0.1096 -0.13466,-0.0179 -0.28753,0.20882 -0.4223,0.22469 -0.19296,0.0227 0.10802,0.79614 0.11881,0.72821 z"
       sodipodi:nodetypes="sssssssssss" />
    <path
       id="path68407-8"
       style="fill:#7a7a7a;stroke:#000000;stroke-width:0.0499878;stroke-linecap:square;stroke-linejoin:round;paint-order:fill markers stroke"
       d="m 137.61433,84.933624 c -0.0129,-0.0519 0.0363,-0.26139 0.0647,-0.17804 0.0744,0.21881 0.20236,0.71281 0.16565,-0.17162 -0.002,-0.0372 0.058,-0.0531 0.0904,-0.0821 0.12844,-0.11466 0.25566,-0.15431 0.40892,-0.14204 0.12703,0.24561 0.243,0.21496 0.35579,0.34603 0.14665,0.17043 0.27815,0.46275 0.32117,0.4363 0.0839,-0.0516 -0.0995,-0.46452 -0.55229,-0.89305 -0.14185,-0.0985 -0.23773,-0.14843 -0.37487,-0.14483 -0.26557,-0.0105 -0.44363,0.26371 -0.65495,0.43851 -0.0883,0.10705 -0.0265,0.29642 0.0458,0.49914 0.014,0.0393 0.0946,0.39386 0.11068,0.43197 0.0188,0.0445 0.007,-0.29099 0.027,-0.25052 0.0898,0.18479 0.14428,0.32611 0.13374,0.28351 z"
       sodipodi:nodetypes="sssscsscccsssss" />
    <path
       id="rect34298"
       style="fill:#f2cd04;stroke:#000000;stroke-width:0.553431;stroke-linecap:square;stroke-linejoin:round;stroke-miterlimit:4;stroke-dasharray:none;stroke-opacity:0;paint-order:fill markers stroke"
       d="m 118.41629,163.56759 2.11217,0.0924 c 0.92755,0.44576 0.83872,-1.76515 2.03006,-1.84558 0.96523,-0.0652 1.55658,-0.68086 2.38287,1.43629 l 0.0943,32.4926 h 2.86652 v -31.79284 c 0.0819,-2.35966 -2.05117,-4.88308 -6.37746,-4.29758 -2.2031,0.29816 -2.72597,2.72953 -3.10845,3.91469 z"
       sodipodi:nodetypes="ccsccccsc" />
    <path
       id="rect41328"
       style="fill:#d2b100;fill-opacity:1;stroke:#685802;stroke-width:0.475749;stroke-linecap:square;stroke-linejoin:round;stroke-opacity:0;paint-order:fill markers stroke"
       d="m 118.41629,163.56759 c 1.31815,-3.30238 5.85491,-5.332 8.34513,-0.77897 0.073,7.83616 0.33664,14.72621 0.29065,22.47228 -0.0208,3.50661 0.0696,6.98661 0.12425,10.48242 h 0.72588 l -0.0754,-32.82267 c -0.18322,-1.93554 -3.19921,-3.76827 -6.11805,-3.31662 -1.51399,0.23427 -3.80805,2.38375 -3.29243,3.96356 z"
       sodipodi:nodetypes="ccscccsc" />
    <rect
       style="fill:#f2cd04;fill-opacity:1;stroke:#000000;stroke-width:0.553431;stroke-linecap:square;stroke-linejoin:round;stroke-miterlimit:4;stroke-dasharray:none;stroke-opacity:0;paint-order:fill markers stroke"
       id="rect38716"
       width="6.4873857"
       height="9.7438183"
       x="-122.84809"
       y="163.18469"
       transform="scale(-1,1)" />
    <ellipse
       style="fill:#fdd500;fill-opacity:1;stroke:#917a00;stroke-width:0.371962;stroke-linecap:square;stroke-linejoin:round;stroke-miterlimit:4;stroke-dasharray:none;stroke-opacity:1;paint-order:fill markers stroke"
       id="path38740"
       cx="-119.49125"
       cy="168.20184"
       rx="1.7302868"
       ry="1.2641898"
       transform="scale(-1,1)" />
    <ellipse
       style="fill:#c90c10;fill-opacity:1;stroke:#917a00;stroke-width:0.368344;stroke-linecap:square;stroke-linejoin:round;stroke-miterlimit:4;stroke-dasharray:none;stroke-opacity:1;paint-order:fill markers stroke"
       id="path38740-9"
       cx="-119.49125"
       cy="165.03311"
       rx="1.6947315"
       ry="1.2657259"
       transform="scale(-1,1)" />
    <ellipse
       style="fill:#49d400;fill-opacity:1;stroke:#917a00;stroke-width:0.368344;stroke-linecap:square;stroke-linejoin:round;stroke-miterlimit:4;stroke-dasharray:none;stroke-opacity:1;paint-order:fill markers stroke"
       id="path38740-9-3"
       cx="-119.52897"
       cy="171.15932"
       rx="1.6947315"
       ry="1.2657259"
       transform="scale(-1,1)" />
    <path
       id="rect50526"
       style="fill:#d2b100;stroke:#000000;stroke-width:0.553431;stroke-linecap:square;stroke-linejoin:round;stroke-opacity:0;paint-order:fill markers stroke"
       d="m 122.84808,163.18471 -0.52804,0.0264 0.0703,9.45188 -5.98536,-0.035 -0.0443,0.30055 h 6.60053 z"
       sodipodi:nodetypes="ccccccc" />
    <rect
       style="fill:#d2b100;fill-opacity:1;stroke:#000000;stroke-width:0.53077;stroke-linecap:square;stroke-linejoin:round;stroke-miterlimit:4;stroke-dasharray:none;stroke-opacity:0;paint-order:fill markers stroke"
       id="rect57839"
       width="6.4874034"
       height="0.36968523"
       x="-122.84809"
       y="163.18469"
       transform="scale(-1,1)" />
    <path
       id="rect13431"
       style="fill:#1c1c1c;fill-opacity:1;stroke:#000000;stroke-width:0.323039;stroke-linecap:square;stroke-linejoin:round;stroke-opacity:1;paint-order:fill markers stroke"
       d="m 243.62694,111.61245 -3.37594,-0.19973 c 10.7357,-58.749117 18.11255,-80.359669 3.37594,0.19973 z"
       sodipodi:nodetypes="ccc" />
    <rect
       style="fill:#1c1c1c;fill-opacity:1;stroke:#000000;stroke-width:0.286997;stroke-linecap:square;stroke-linejoin:round;stroke-opacity:1;paint-order:fill markers stroke"
       id="rect5055"
       width="23.414255"
       height="5.5885897"
       x="245.53439"
       y="-15.641505"
       transform="matrix(0.95421014,0.29913711,-0.40555686,0.91406982,0,0)" />
    <rect
       style="fill:#e1e1e1;fill-opacity:1;stroke:#000000;stroke-width:0.227838;stroke-linecap:square;stroke-linejoin:round;stroke-opacity:0;paint-order:fill markers stroke"
       id="rect5409"
       width="10.852617"
       height="1.9767774"
       x="248.91754"
       y="-13.914126"
       transform="matrix(0.95421014,0.29913711,-0.40555686,0.91406982,0,0)" />
    <path
       id="rect23908-1-8"
       style="fill:#e1e1e1;fill-opacity:1;stroke:#000000;stroke-width:0;stroke-linecap:square;stroke-linejoin:round;paint-order:fill markers stroke"
       d="m 258.89949,67.6287 -6.28796,-3.87451 -1.53247,3.62625 z"
       sodipodi:nodetypes="cccc" />
    <rect
       style="fill:#1c1c1c;fill-opacity:1;stroke:#000000;stroke-width:0.286997;stroke-linecap:square;stroke-linejoin:round;stroke-opacity:1;paint-order:fill markers stroke"
       id="rect5055-8"
       width="23.414255"
       height="5.5885897"
       x="-270.78082"
       y="4.2012825"
       transform="matrix(-0.9661035,-0.25815506,-0.1467801,0.98916915,0,0)" />
    <rect
       style="fill:#e1e1e1;fill-opacity:1;stroke:#000000;stroke-width:0.227838;stroke-linecap:square;stroke-linejoin:round;stroke-opacity:0;paint-order:fill markers stroke"
       id="rect5409-7"
       width="10.852617"
       height="1.9767774"
       x="-267.39771"
       y="5.9286385"
       transform="matrix(-0.9661035,-0.25815506,-0.1467801,0.98916915,0,0)" />
    <path
       id="rect23908-1-8-0"
       style="fill:#e1e1e1;fill-opacity:1;stroke:#000000;stroke-width:0;stroke-linecap:square;stroke-linejoin:round;paint-order:fill markers stroke"
       d="m 241.02022,71.442214 7.38521,0.09356 -0.64684,3.883288 z"
       sodipodi:nodetypes="cccc" />
    <rect
       style="fill:#1c1c1c;fill-opacity:1;stroke:#000000;stroke-width:0.501347;stroke-linecap:square;stroke-linejoin:round;stroke-opacity:1;paint-order:fill markers stroke"
       id="rect14082"
       width="28.818548"
       height="6.6316152"
       x="243.49384"
       y="39.417393"
       transform="rotate(9.3017331)" />
    <text
       xml:space="preserve"
       style="font-size:4.56124px;line-height:1.25;font-family:'Akira Expanded';-inkscape-font-specification:'Akira Expanded, ';fill:#ffffff;fill-opacity:1;stroke:#000000;stroke-width:0.372802;stroke-miterlimit:4;stroke-dasharray:none;stroke-opacity:1"
       x="239.48779"
       y="45.241138"
       id="text27164"
       transform="matrix(1.0056764,0.16471706,-0.158608,0.96837765,0,0)"><tspan
         sodipodi:role="line"
         id="tspan27162"
         style="fill:#ffffff;fill-opacity:1;stroke:#000000;stroke-width:0.372802;stroke-miterlimit:4;stroke-dasharray:none;stroke-opacity:1"
         x="239.48779"
         y="45.241138">Bv. City</tspan></text>
    <rect
       style="fill:#353535;fill-opacity:1;stroke:#000000;stroke-width:0.836;stroke-linecap:square;stroke-linejoin:round;stroke-miterlimit:4;stroke-dasharray:none;stroke-opacity:1;paint-order:fill markers stroke"
       id="rect11153-1"
       width="4.0386677"
       height="38.36734"
       x="200.61244"
       y="158.48489" />
    <rect
       style="fill:#353535;fill-opacity:1;stroke:#000000;stroke-width:0.836;stroke-linecap:square;stroke-linejoin:round;stroke-miterlimit:4;stroke-dasharray:none;stroke-opacity:1;paint-order:fill markers stroke"
       id="rect11153-2-2"
       width="4.0386677"
       height="38.36734"
       x="152.90569"
       y="157.72765" />
    <path
       id="rect13679-2"
       style="fill:#353535;fill-opacity:1;stroke:#000000;stroke-width:1.90996;stroke-linecap:square;stroke-linejoin:round;stroke-miterlimit:4;stroke-dasharray:none;paint-order:fill markers stroke"
       d="m 125.03569,195.7433 19.84242,-0.0883 11.00311,-6.21382 11.23714,7.5635 31.86177,-0.9598 19.83467,3.18225 14.29296,-3.23653 -1.87329,13.34904 3.62852,27.70386 c -11.74601,-0.89931 -24.27481,0.1315 -34.82281,-3.72175 l -14.06352,3.00431 -59.938,-0.51909 1.65229,-23.24346 z"
       sodipodi:nodetypes="cccccccccccccc" />
    <path
       style="fill:#3f3f3f;fill-opacity:1;stroke:#242222;stroke-width:1.12791;stroke-linecap:square;stroke-linejoin:round;stroke-miterlimit:4;stroke-dasharray:none;stroke-opacity:1;paint-order:fill markers stroke"
       id="path78312"
       d="m 159.23111,234.5285 c 0.10089,-1.33046 0.7988,-2.54693 1.40481,-3.71797 0.8634,-1.54663 1.89546,-3.01788 3.20053,-4.2542 0.80599,-0.76352 1.10839,-0.93349 2.01069,-1.57895 1.39932,-0.90379 2.93953,-1.57074 4.54549,-2.05279 0.79127,-0.23752 1.60693,-0.42537 2.40981,-0.62122 1.60718,-0.39393 3.21559,-0.81047 4.75101,-1.422 0.909,-0.36204 1.06047,-0.46489 1.90746,-0.90093 1.41657,-0.76893 2.52074,-1.9022 3.55122,-3.08881 0.0955,-0.12105 0.1911,-0.24211 0.28664,-0.36317 0,0 -0.0442,0.0183 -0.0442,0.0183 v 0 c -0.0954,0.12093 -0.19091,0.24188 -0.28636,0.36282 -1.00998,1.16332 -2.09104,2.27761 -3.47149,3.04315 -0.84686,0.43635 -0.99872,0.5395 -1.90764,0.90178 -1.53526,0.61194 -3.14365,1.02863 -4.75086,1.42251 -0.80259,0.19571 -1.61906,0.38371 -2.41008,0.62098 -1.63489,0.49037 -3.1982,1.17602 -4.62271,2.09531 -0.90244,0.64598 -1.20413,0.81556 -2.01017,1.57962 -1.30493,1.23696 -2.33661,2.70877 -3.20052,4.25552 -0.60708,1.17228 -1.3061,2.38957 -1.40758,3.72158 0,0 0.0439,-0.0215 0.0439,-0.0215 z" />
    <path
       style="fill:#3f3f3f;fill-opacity:1;stroke:#242222;stroke-width:1.15;stroke-linecap:square;stroke-linejoin:round;stroke-miterlimit:4;stroke-dasharray:none;stroke-opacity:1;paint-order:fill markers stroke"
       id="path78316"
       d="m 193.74342,214.93683 c 0.54371,-1.26431 1.13897,-2.50263 1.81275,-3.70261 0.59474,-0.97031 1.29376,-1.89934 2.21321,-2.58712 0.58131,-0.43485 0.91558,-0.57739 1.5562,-0.9133 1.23988,-0.56662 2.52074,-1.05305 3.84467,-1.38446 0.52023,-0.13022 1.17387,-0.25138 1.7032,-0.35491 1.14415,-0.22415 2.31956,-0.30064 3.44483,-0.61403 0.91104,-0.36205 1.34618,-1.19671 1.69687,-2.05612 0.29676,-0.80397 0.3927,-1.65251 0.43645,-2.50209 -2.5e-4,-0.46279 0.0692,-0.92123 0.12081,-1.38005 0,0 -0.044,0.0218 -0.044,0.0218 v 0 c -0.0515,0.45882 -0.12049,0.9173 -0.12017,1.38007 -0.0438,0.84902 -0.13966,1.69705 -0.43666,2.50038 -0.33505,0.81918 -0.74916,1.65402 -1.61495,2.00651 -1.12536,0.31482 -2.30142,0.39096 -3.44594,0.61536 -0.52757,0.1032 -1.1855,0.22527 -1.70384,0.35494 -1.32406,0.33124 -2.60502,0.81758 -3.84523,1.38365 -0.65563,0.34693 -1.0475,0.51938 -1.63544,0.95975 -0.91916,0.68847 -1.61797,1.61798 -2.21253,2.58861 -0.67404,1.20075 -1.26899,2.43997 -1.81527,3.70399 0,0 0.045,-0.0204 0.045,-0.0204 z" />
    <path
       style="fill:#3f3f3f;fill-opacity:1;stroke:#242222;stroke-width:1.12201;stroke-linecap:square;stroke-linejoin:round;stroke-miterlimit:4;stroke-dasharray:none;stroke-opacity:1;paint-order:fill markers stroke"
       id="path78314"
       d="m 183.75575,216.88671 c 0.84932,-0.088 1.6573,-0.42236 2.47782,-0.6516 0.32379,-0.0904 0.6503,-0.16985 0.97545,-0.25479 2.15045,-0.44542 4.34608,-0.71568 6.54066,-0.69748 0.41882,0.003 0.83708,0.0329 1.25563,0.0494 2.36328,0.16669 4.65693,0.82516 6.9432,1.43527 1.99003,0.51092 3.98144,1.04756 6.02173,1.28649 0.48409,0.0567 0.97066,0.0867 1.45599,0.13016 2.38073,0.0834 4.78759,-0.1731 7.09,-0.83444 0.32699,-0.0939 0.64571,-0.21729 0.96857,-0.32594 1.51539,-0.58229 2.69281,-1.6966 3.79053,-2.89864 1.00881,-1.09627 1.90165,-2.29931 2.90465,-3.40074 0.92349,-0.92653 1.81406,-1.88615 2.56077,-2.97772 0.65916,-1.01502 1.10318,-2.15968 1.6421,-3.24645 0.47232,-1.01835 1.00224,-2.0011 1.58085,-2.95578 0.4217,-0.66689 0.79434,-1.36332 1.08839,-2.10237 0.1943,-0.51472 0.28368,-1.05307 0.2466,-1.60398 0,0 -0.0414,0.0226 -0.0414,0.0226 v 0 c 0.0368,0.5502 -0.0529,1.08779 -0.24711,1.60172 -0.29427,0.73861 -0.6668,1.43473 -1.08829,2.10141 -0.57831,0.95477 -1.10768,1.93777 -1.58017,2.95591 -0.53875,1.08672 -0.98285,2.23128 -1.64247,3.24587 -0.74704,1.09097 -1.63728,2.05043 -2.56051,2.97688 -1.00269,1.10172 -1.8957,2.30463 -2.90467,3.40075 -1.077,1.17888 -2.22817,2.28131 -3.71483,2.85244 -0.32296,0.10889 -0.64177,0.23253 -0.9689,0.32666 -2.30222,0.66249 -4.70926,0.91967 -7.09008,0.83625 -0.48518,-0.0434 -0.97159,-0.0735 -1.45553,-0.13022 -2.03998,-0.23904 -4.03105,-0.77591 -6.02085,-1.28654 -2.28654,-0.61022 -4.58043,-1.26892 -6.944,-1.43583 -0.41865,-0.0164 -0.83702,-0.046 -1.25597,-0.0494 -2.19437,-0.0182 -4.38976,0.25178 -6.54024,0.6959 -0.32498,0.0847 -0.65132,0.1639 -0.97496,0.25417 -0.81964,0.22865 -1.62665,0.56223 -2.47484,0.65094 0,0 -0.038,0.0291 -0.038,0.0291 z" />
    <rect
       style="fill:#353535;fill-opacity:1;stroke:#000000;stroke-width:1.16784;stroke-linecap:square;stroke-linejoin:round;stroke-miterlimit:4;stroke-dasharray:none;stroke-opacity:1;paint-order:fill markers stroke"
       id="rect14912-3"
       width="35.506504"
       height="25.409836"
       x="162.57472"
       y="202.87012" />
    <path
       id="rect23908-1"
       style="stroke:#000000;stroke-width:0;stroke-linecap:square;stroke-linejoin:round;paint-order:fill markers stroke"
       d="m 193.48018,215.31912 -23.04301,-9.40976 0.21994,20.30317 z"
       sodipodi:nodetypes="cccc" />
    <path
       id="rect858-7"
       style="fill:#353535;fill-opacity:1;stroke:#000000;stroke-width:2.61282;stroke-linecap:square;stroke-linejoin:round;stroke-miterlimit:4;stroke-dasharray:none;stroke-opacity:1;paint-order:fill markers stroke"
       d="m 111.78865,112.47692 c 52.54458,-3.39638 91.03927,-6.18604 144.28822,0.24869 -1.1607,-0.32765 10.31952,13.44316 13.70022,20.40356 -2.56405,6.4153 -14.71766,22.01449 -13.4485,22.43246 -49.35911,2.49569 -97.85776,3.29117 -144.53994,0.49737 L 97.189232,134.36375 Z"
       sodipodi:nodetypes="ccccccc" />
    <path
       style="fill:#3f3f3f;fill-opacity:1;stroke:#242222;stroke-width:1.62987;stroke-linecap:square;stroke-linejoin:round;stroke-miterlimit:4;stroke-dasharray:none;stroke-opacity:1;paint-order:fill markers stroke"
       id="path75875"
       d="m 210.31101,111.47876 c 0.34065,0.0647 0.68715,0.11333 1.02193,0.19377 1.68832,0.40545 3.75793,1.03823 5.31328,1.54256 3.08087,0.99901 5.85613,1.97376 8.82344,3.17612 1.5057,0.61013 2.9673,1.28124 4.45095,1.92186 1.2777,0.65351 2.60973,1.24946 3.83311,1.96055 2.7381,1.59155 5.35864,3.62086 6.31201,6.22674 0.6757,1.8469 0.31716,2.89923 0.0965,4.77831 -0.55258,2.78035 -1.75716,5.45365 -2.43199,8.21378 -0.45078,1.84368 -0.77799,3.46824 -0.34465,5.33822 0.18511,0.79883 0.64801,1.54563 0.97203,2.31845 0.58148,0.66045 1.0502,1.38719 1.74444,1.98135 2.69253,2.30438 6.97876,3.53588 10.79263,4.31776 0.71924,0.14745 1.45327,0.24946 2.17991,0.3742 0,0 0.0596,-0.0314 0.0596,-0.0314 v 0 c -0.72709,-0.12432 -1.4616,-0.22582 -2.18127,-0.37297 -3.81371,-0.77975 -8.09914,-2.01041 -10.79139,-4.31409 -0.6939,-0.59374 -1.16248,-1.31996 -1.74371,-1.97996 -0.32398,-0.77232 -0.78684,-1.51862 -0.97196,-2.31696 -0.43344,-1.86916 -0.10649,-3.49359 0.34419,-5.33649 0.67497,-2.76063 1.88035,-5.43427 2.4334,-8.21505 0.22063,-1.8803 0.57958,-2.93296 -0.0976,-4.78093 -0.95511,-2.6067 -3.5793,-4.6356 -6.31922,-6.22677 -1.2241,-0.71088 -2.5567,-1.30669 -3.83504,-1.96004 -1.48376,-0.64065 -2.9456,-1.31157 -4.45127,-1.92197 -2.96697,-1.20283 -5.73889,-2.17783 -8.81828,-3.1792 -1.55316,-0.50507 -3.62014,-1.13957 -5.30576,-1.54738 -0.3342,-0.0809 -0.68011,-0.13045 -1.02015,-0.1957 0,0 -0.0653,0.0353 -0.0653,0.0353 z" />
    <path
       style="fill:#3f3f3f;fill-opacity:1;stroke:#242222;stroke-width:1.15;stroke-linecap:square;stroke-linejoin:round;stroke-miterlimit:4;stroke-dasharray:none;stroke-opacity:1;paint-order:fill markers stroke"
       id="path78300"
       d="m 127.10275,114.05632 c 0.28455,0.8687 0.68835,1.70223 1.24778,2.42857 0.18254,0.237 0.38474,0.45819 0.57711,0.68729 1.38253,1.41442 2.96171,2.63572 4.66098,3.64701 0.39893,0.23741 0.80993,0.45392 1.21489,0.68088 2.60393,1.36016 5.26513,2.60638 7.95445,3.78731 1.78954,0.74906 3.6171,1.40319 5.4483,2.04183 0.81446,0.20565 1.50216,0.64244 2.18702,1.10865 0.98879,0.65031 1.97497,1.29973 2.9317,1.99645 0.67889,0.52022 1.11459,1.25127 1.5194,1.98867 0.2804,0.53959 0.46439,1.11817 0.64266,1.69696 0.2122,0.66129 0.33964,1.34341 0.46949,2.0243 0.0195,0.11271 0.0389,0.22541 0.0583,0.33812 0,0 0.043,-0.0228 0.043,-0.0228 v 0 c -0.0195,-0.11271 -0.039,-0.22542 -0.0584,-0.33814 -0.12999,-0.68106 -0.2572,-1.36343 -0.46953,-2.02488 -0.17826,-0.57914 -0.36246,-1.158 -0.64335,-1.69771 -0.40548,-0.73782 -0.84142,-1.46961 -1.52085,-1.99028 -0.95706,-0.69641 -1.94366,-1.34533 -2.93201,-1.99643 -0.68491,-0.4673 -1.37245,-0.90472 -2.18796,-1.10954 -1.8321,-0.63763 -3.66058,-1.29074 -5.4507,-2.03978 -2.68937,-1.18048 -5.35055,-2.42651 -7.95416,-3.78698 -0.40486,-0.22694 -0.81576,-0.44341 -1.21458,-0.6808 -1.69863,-1.0111 -3.2772,-2.23226 -4.65875,-3.64674 -0.19216,-0.22906 -0.39414,-0.45022 -0.57646,-0.68719 -0.55871,-0.72615 -0.96216,-1.55946 -1.24489,-2.4282 0,0 -0.0434,0.0234 -0.0434,0.0234 z" />
    <path
       style="fill:#3f3f3f;fill-opacity:1;stroke:#242222;stroke-width:1.15;stroke-linecap:square;stroke-linejoin:round;stroke-miterlimit:4;stroke-dasharray:none;stroke-opacity:1;paint-order:fill markers stroke"
       id="path78304"
       d="m 155.92605,133.03377 c 0.49974,-0.5453 0.97895,-1.10934 1.38796,-1.7264 0.39378,-0.54467 0.6678,-1.1663 1.04534,-1.72082 0.21682,-0.31846 0.29627,-0.37957 0.5584,-0.65425 0.5801,-0.57309 1.34073,-0.69089 2.12235,-0.72123 1.13695,0.0377 2.25071,0.27915 3.3737,0.43726 0.88775,0.12693 1.79029,0.16467 2.66832,-0.0512 0.62846,-0.15454 0.8599,-0.28669 1.46318,-0.54812 2.21607,-1.02525 3.95072,-2.77868 5.67674,-4.4582 1.49295,-1.47931 2.93004,-3.01396 4.37754,-4.53749 0.77052,-0.77825 1.50275,-1.5918 2.2691,-2.37439 0.83066,-0.84849 1.65216,-1.70814 2.4417,-2.59526 0.37585,-0.47948 0.80259,-0.92617 1.08866,-1.46815 0.13006,-0.27497 0.15966,-0.57454 0.17789,-0.87366 0,0 -0.0441,0.0221 -0.0441,0.0221 v 0 c -0.0184,0.29856 -0.0483,0.59748 -0.17868,0.87171 -0.28657,0.541 -0.7124,0.98765 -1.08801,1.46659 -0.78952,0.887 -1.61073,1.74674 -2.44154,2.59495 -0.76626,0.7825 -1.49855,1.59584 -2.26869,2.3743 -1.4464,1.5234 -2.88262,3.05773 -4.37513,4.5363 -1.70355,1.65742 -3.41498,3.39514 -5.59886,4.41219 -0.60247,0.26143 -0.83447,0.39389 -1.46215,0.54869 -0.87758,0.21645 -1.77973,0.17914 -2.66719,0.0523 -1.12302,-0.15806 -2.23669,-0.39963 -3.37358,-0.43839 -0.81306,0.0306 -1.60225,0.17486 -2.20588,0.76835 -0.26251,0.27573 -0.34066,0.33566 -0.55785,0.65514 -0.3771,0.55473 -0.6515,1.17603 -1.04533,1.72061 -0.40979,0.61695 -0.8894,1.18099 -1.3894,1.72655 0,0 0.0455,-0.0194 0.0455,-0.0194 z" />
    <path
       style="fill:#3f3f3f;fill-opacity:1;stroke:#242222;stroke-width:1.15;stroke-linecap:square;stroke-linejoin:round;stroke-miterlimit:4;stroke-dasharray:none;stroke-opacity:1;paint-order:fill markers stroke"
       id="path78302"
       d="m 155.86669,136.2791 c -0.68601,0.75983 -1.44664,1.42797 -2.26515,2.04137 -1.12112,0.79161 -2.39249,1.28886 -3.68997,1.70377 -0.25476,0.0678 -0.50778,0.14251 -0.76429,0.20339 -0.51457,0.12211 -1.47027,0.30394 -1.96624,0.4003 -1.2833,0.24933 -2.56542,0.50428 -3.84824,0.75607 -1.90523,0.40073 -3.80599,0.91152 -5.55147,1.79469 -0.27783,0.14058 -0.54288,0.30508 -0.81432,0.45761 -1.05452,0.65799 -2.01092,1.47114 -2.67163,2.53606 -0.10733,0.17298 -0.1966,0.35653 -0.2949,0.53479 -0.53726,1.08184 -0.85798,2.24966 -1.11739,3.4241 -0.18887,0.86762 -0.34499,1.74178 -0.51394,2.61353 -0.0596,0.46874 -0.13004,0.93286 -0.21345,1.39782 -0.0447,0.24966 -0.0651,0.50237 -0.0814,0.75513 0,0 0.044,-0.0221 0.044,-0.0221 v 0 c 0.0165,-0.25258 0.0369,-0.50512 0.0816,-0.75459 0.0835,-0.46486 0.15314,-0.929 0.21308,-1.39758 0.16852,-0.87157 0.32406,-1.74561 0.51304,-2.61294 0.25949,-1.17408 0.58019,-2.34154 1.11786,-3.42282 0.0983,-0.17811 0.1877,-0.3615 0.29505,-0.53433 0.64424,-1.03717 1.57103,-1.83614 2.59203,-2.48798 0.27143,-0.15269 0.53646,-0.31737 0.81429,-0.45808 1.74544,-0.88399 3.64646,-1.39544 5.55198,-1.79642 1.2825,-0.25165 2.56429,-0.50646 3.84732,-0.75539 0.49252,-0.0956 1.45389,-0.27818 1.96551,-0.39936 0.25648,-0.0607 0.50947,-0.13535 0.7642,-0.20302 1.32807,-0.42428 2.62458,-0.93897 3.77128,-1.75016 0.81887,-0.61405 1.57914,-1.28341 2.26702,-2.04229 0,0 -0.0459,0.0184 -0.0459,0.0184 z" />
    <text
       xml:space="preserve"
       style="font-size:18.7421px;line-height:1.25;font-family:'Akira Expanded';-inkscape-font-specification:'Akira Expanded, ';fill:#ffffff;fill-opacity:1;stroke:#000000;stroke-width:1.05334;stroke-miterlimit:4;stroke-dasharray:none;stroke-opacity:1"
       x="124.74688"
       y="122.857"
       id="text34893-6"
       transform="scale(0.87463116,1.1433391)"
       inkscape:transform-center-x="-3.3300904"
       inkscape:transform-center-y="-6.2333447"><tspan
         sodipodi:role="line"
         id="tspan34891-0"
         style="font-style:normal;font-variant:normal;font-weight:normal;font-stretch:normal;font-family:'Akira Expanded';-inkscape-font-specification:'Akira Expanded, ';fill:#ffffff;fill-opacity:1;stroke:#000000;stroke-width:1.05334;stroke-miterlimit:4;stroke-dasharray:none;stroke-opacity:1"
         x="124.74688"
         y="122.857">D e r r o t a</tspan></text>
    <ellipse
       style="fill:#7a7a7a;fill-opacity:1;stroke:#000000;stroke-width:0.104907;stroke-linecap:square;stroke-linejoin:round;stroke-miterlimit:4;stroke-dasharray:none;stroke-opacity:1;paint-order:fill markers stroke"
       id="path74076"
       cx="122.39941"
       cy="-83.281914"
       rx="1.7910471"
       ry="1.1187005"
       transform="matrix(0.46783178,0.88381753,-0.89192395,0.45218543,0,0)"
       inkscape:transform-center-x="0.047316937"
       inkscape:transform-center-y="-0.069455425" />
    <ellipse
       style="fill:#3f3f3f;fill-opacity:1;stroke:#000000;stroke-width:0.0524544;stroke-linecap:square;stroke-linejoin:round;stroke-miterlimit:4;stroke-dasharray:none;stroke-opacity:1;paint-order:fill markers stroke"
       id="path75372"
       cx="73.60894"
       cy="128.51524"
       rx="0.24988632"
       ry="0.59398669"
       transform="matrix(0.85527676,-0.51817146,0.53458858,0.84511245,0,0)" />
    <path
       id="rect74848"
       style="fill:#7a7a7a;stroke:#000000;stroke-width:0.0898076;stroke-linecap:square;stroke-linejoin:round;paint-order:fill markers stroke"
       d="m 133.34116,68.635123 c 0.0252,0.07114 -1.27978,1.560393 -1.57588,1.970121 l -0.19442,-0.09456 c 0.58547,-0.562821 1.21799,-1.489536 1.77035,-1.875543 z"
       sodipodi:nodetypes="cccc" />
    <path
       id="rect74848-5"
       style="fill:#7a7a7a;stroke:#000000;stroke-width:0.0553521;stroke-linecap:square;stroke-linejoin:round;paint-order:fill markers stroke"
       d="m 133.0155,69.699164 c 0.008,0.04301 -1.01087,0.71368 -1.25022,0.90608 l -0.11638,-0.0773 c 0.44551,-0.241907 0.96257,-0.681733 1.36663,-0.828755 z"
       sodipodi:nodetypes="cccc" />
    <path
       style="fill:#3f3f3f;fill-opacity:1;stroke:#242222;stroke-width:1.18326;stroke-linecap:square;stroke-linejoin:round;stroke-miterlimit:4;stroke-dasharray:none;stroke-opacity:1;paint-order:fill markers stroke"
       id="path78306"
       d="m 191.33675,156.17455 c -0.24979,-1.03376 -0.2231,-2.10353 -0.15409,-3.15714 0.14172,-1.06014 0.47139,-2.09561 1.17285,-2.91517 0.48233,-0.56356 0.77637,-0.72452 1.37319,-1.16297 1.00781,-0.62249 2.11313,-1.16224 3.29659,-1.31825 0.81219,-0.10705 1.1017,-0.0305 1.92398,0.0478 1.35898,0.24439 2.72289,0.5787 3.99616,1.13388 0.74293,0.32393 1.39037,0.69828 2.10419,1.08679 2.09399,1.11101 4.25822,2.15711 6.55148,2.76985 0.37523,0.10025 0.75811,0.16796 1.13717,0.25194 1.59861,0.27134 3.2516,0.22803 4.76388,-0.41767 0.21281,-0.0909 0.41267,-0.21049 0.61902,-0.31574 1.14449,-0.6434 1.84385,-1.58152 2.56059,-2.65772 0.31056,-0.44667 0.50899,-1.07119 1.01637,-1.34111 0.24858,-0.13224 0.52838,-0.12922 0.79809,-0.15849 1.06666,-0.0376 2.1239,0.14505 3.14653,0.44046 0.93314,0.2829 1.84475,0.62731 2.61661,1.24949 0.18098,0.14589 0.34575,0.31152 0.51863,0.46727 1.0718,1.03541 2.02712,2.17955 2.80276,3.45992 0.3831,0.69921 0.19695,0.36314 0.5578,1.00863 0,0 0.0424,-0.0249 0.0424,-0.0249 v 0 c -0.36128,-0.64528 -0.17494,-0.30924 -0.55834,-1.00851 -0.77615,-1.28062 -1.73209,-2.42474 -2.80362,-3.46108 -0.1729,-0.15596 -0.3377,-0.32181 -0.51871,-0.4679 -0.77191,-0.62293 -1.68366,-0.96786 -2.61724,-1.25104 -1.02283,-0.29608 -2.08034,-0.47859 -3.14738,-0.44217 -0.39778,0.0422 -0.52813,0.015 -0.88351,0.20697 -0.50563,0.27327 -0.70429,0.89453 -1.01493,1.34228 -0.68665,1.03061 -1.38968,1.98186 -2.47836,2.60719 -0.20632,0.1055 -0.40615,0.22538 -0.61897,0.31648 -1.51175,0.64712 -3.16478,0.69138 -4.7635,0.42068 -0.37909,-0.0838 -0.76201,-0.15131 -1.13728,-0.25141 -2.29332,-0.61162 -4.45781,-1.65686 -6.55095,-2.76909 -0.7124,-0.38819 -1.36204,-0.76415 -2.10374,-1.08785 -1.27337,-0.55573 -2.63778,-0.88948 -3.99684,-1.13494 -0.82185,-0.0788 -1.11249,-0.1557 -1.92443,-0.0492 -1.21644,0.15946 -2.3428,0.72735 -3.37837,1.36522 -0.59709,0.43926 -0.89071,0.60008 -1.37302,1.16459 -0.70118,0.82066 -1.0304,1.85698 -1.17199,2.91777 -0.0691,1.05449 -0.096,2.12491 0.15283,3.15975 0,0 0.0442,-0.0245 0.0442,-0.0245 z" />
    <path
       style="fill:#3f3f3f;fill-opacity:1;stroke:#242222;stroke-width:0.921165;stroke-linecap:square;stroke-linejoin:round;stroke-miterlimit:4;stroke-dasharray:none;stroke-opacity:1;paint-order:fill markers stroke"
       id="path78308"
       d="m 153.77061,173.96077 c 0.47797,0.19059 0.76694,0.43394 1.10253,1.01251 0.28824,0.50495 0.41048,1.16424 0.54154,1.79963 0.0878,0.48056 0.18108,0.97797 0.3741,1.37894 0.13099,0.19305 0.0617,0.10674 0.20739,0.26008 0,0 0.0262,-0.0268 0.0262,-0.0268 v 0 c -0.14537,-0.15238 -0.0762,-0.0665 -0.20689,-0.25864 -0.1929,-0.40037 -0.28577,-0.89743 -0.37381,-1.37727 -0.13129,-0.63602 -0.25362,-1.29598 -0.54227,-1.8014 -0.3362,-0.57982 -0.62477,-0.82302 -1.10333,-1.01582 0,0 -0.0255,0.0288 -0.0255,0.0288 z" />
    <path
       style="fill:#3f3f3f;fill-opacity:1;stroke:#242222;stroke-width:1.53714;stroke-linecap:square;stroke-linejoin:round;stroke-miterlimit:4;stroke-dasharray:none;stroke-opacity:1;paint-order:fill markers stroke"
       id="path78310"
       d="m 144.8141,197.55677 c 0.0554,1.77508 -0.0677,1.67037 -0.29442,3.43417 -0.23102,1.47519 -0.67484,2.9172 -1.39965,4.27424 -0.43206,0.80896 -0.67915,1.13318 -1.19827,1.90286 -1.22098,1.71129 -2.91128,3.123 -4.39751,4.66092 -0.31911,0.3302 -0.61818,0.67401 -0.92726,1.01102 -1.12479,1.38889 -2.06131,2.93432 -2.4219,4.60843 -0.22372,1.03865 -0.14822,1.44358 -0.11694,2.4892 0.21481,2.06838 1.37953,3.91332 2.08936,5.86962 0.35538,1.15184 0.30648,2.31209 -0.46119,3.34622 2.64604,-0.8839 -8.44858,5.17202 -7.85572,5.23446 l 3.0701,-2.10603 c 2.46474,-1.69076 0.49963,0.0572 2.97017,-1.49083 0.84042,-0.62916 1.28721,-0.86494 1.87748,-1.66164 0.76729,-1.03567 0.81508,-2.19736 0.45923,-3.35017 -0.71028,-1.95556 -1.8757,-3.79963 -2.0901,-5.86751 -0.031,-1.04547 -0.10649,-1.44932 0.11766,-2.48774 0.36114,-1.67352 1.29789,-3.21814 2.42292,-4.60631 0.30911,-0.33692 0.60821,-0.68062 0.92733,-1.01075 1.48676,-1.5381 3.1773,-2.95022 4.39792,-4.66225 0.51909,-0.77008 0.76597,-1.09414 1.19788,-1.90354 0.72444,-1.35754 1.16767,-2.80003 1.39851,-4.27554 0.22686,-1.76462 0.28548,-1.63294 0.2344,-3.40883 z"
       sodipodi:nodetypes="ccscscsccccscsccccscscccc" />
    <path
       style="fill:#3f3f3f;fill-opacity:1;stroke:#242222;stroke-width:1.21189;stroke-linecap:square;stroke-linejoin:round;stroke-miterlimit:4;stroke-dasharray:none;stroke-opacity:1;paint-order:fill markers stroke"
       id="path78318"
       d="m 233.07145,235.25573 c -1.71849,-0.98699 -3.51194,-1.8531 -5.32139,-2.69533 -3.39814,-1.55739 -6.96206,-2.77799 -10.58279,-3.83918 -1.63749,-0.43701 -3.29042,-0.85606 -4.97481,-1.12277 -0.48455,-0.0767 -1.30709,-0.17249 -1.8008,-0.23253 -1.44859,-0.14294 -2.90614,-0.27896 -4.36292,-0.18043 -1.0641,0.11382 -1.84536,0.39089 -2.68671,0.98648 -0.64825,0.53207 -1.20941,1.14706 -1.74561,1.77063 -0.38713,0.43619 -0.72713,0.90393 -1.06453,1.37165 -0.12626,0.21164 -0.0707,0.10468 -0.16776,0.32035 0,0 0.0498,-0.0207 0.0498,-0.0207 v 0 c 0.0973,-0.21502 0.0417,-0.10837 0.16806,-0.31945 0.33743,-0.46741 0.67681,-0.93516 1.06399,-1.37099 0.53616,-0.62332 1.09728,-1.23818 1.74598,-1.76948 0.28006,-0.19775 0.42061,-0.31652 0.73606,-0.46416 0.57443,-0.26886 1.22312,-0.39396 1.85798,-0.47588 1.45682,-0.0995 2.91454,0.0362 4.36325,0.17899 0.49135,0.0597 1.31896,0.1559 1.80103,0.23202 1.68508,0.26608 3.33888,0.68412 4.97709,1.12071 3.6208,1.06017 7.18435,2.28083 10.5818,3.83892 1.8082,0.84244 3.60066,1.70848 5.3162,2.69803 0,0 0.0462,-0.0269 0.0462,-0.0269 z" />
    <rect
       style="fill:#7a7a7a;fill-opacity:1;stroke:#000000;stroke-width:0.130289;stroke-linecap:square;stroke-linejoin:round;stroke-miterlimit:4;stroke-dasharray:none;stroke-opacity:1;paint-order:fill markers stroke"
       id="rect74664-2"
       width="0.54704601"
       height="2.0963717"
       x="316.09784"
       y="414.34467"
       transform="matrix(0.66839011,-0.7438109,0.29446895,0.95566105,0,0)"
       inkscape:transform-center-x="0.52728422"
       inkscape:transform-center-y="-0.14843828" />
    <rect
       style="fill:#7a7a7a;fill-opacity:1;stroke:#000000;stroke-width:0.104905;stroke-linecap:square;stroke-linejoin:round;stroke-miterlimit:4;stroke-dasharray:none;stroke-opacity:1;paint-order:fill markers stroke"
       id="rect74254-7"
       width="0.63671732"
       height="2.183563"
       x="369.74835"
       y="21.648178"
       transform="matrix(0.92452767,0.38111493,-0.39533946,0.91853509,0,0)" />
    <path
       id="rect57943-2"
       style="fill:#1e1d19;stroke:#000000;stroke-width:0.871788;stroke-linecap:square;stroke-linejoin:round;stroke-opacity:0;paint-order:fill markers stroke"
       d="m 340.49293,161.31486 c -4.6082,0.11966 -8.01902,1.42066 -13.01953,2.37499 l 8.47365,35.46362 h 15.51867 z"
       sodipodi:nodetypes="ccccc" />
    <rect
       style="fill:#e8e8e8;fill-opacity:1;stroke:#000000;stroke-width:0.482407;stroke-linecap:square;stroke-linejoin:round;stroke-miterlimit:4;stroke-dasharray:none;stroke-opacity:1;paint-order:fill markers stroke"
       id="rect59746-07"
       width="3.8418114"
       height="5.0977449"
       x="282.96234"
       y="233.06387"
       transform="matrix(0.97626841,-0.21656407,0.23048913,0.9730749,0,0)" />
    <rect
       style="fill:#e8e8e8;fill-opacity:1;stroke:#000000;stroke-width:0.482407;stroke-linecap:square;stroke-linejoin:round;stroke-miterlimit:4;stroke-dasharray:none;stroke-opacity:1;paint-order:fill markers stroke"
       id="rect59746-0-6"
       width="3.8418114"
       height="5.0977449"
       x="283.49976"
       y="248.87335"
       transform="matrix(0.97626841,-0.21656407,0.23048913,0.9730749,0,0)" />
    <rect
       style="fill:#e8e8e8;fill-opacity:1;stroke:#000000;stroke-width:0.482407;stroke-linecap:square;stroke-linejoin:round;stroke-miterlimit:4;stroke-dasharray:none;stroke-opacity:1;paint-order:fill markers stroke"
       id="rect59746-5-3"
       width="3.8418114"
       height="5.0977449"
       x="283.61118"
       y="255.91394"
       transform="matrix(0.97626841,-0.21656407,0.23048913,0.9730749,0,0)" />
    <rect
       style="fill:#e8e8e8;fill-opacity:1;stroke:#000000;stroke-width:0.482407;stroke-linecap:square;stroke-linejoin:round;stroke-miterlimit:4;stroke-dasharray:none;stroke-opacity:1;paint-order:fill markers stroke"
       id="rect59746-2-1"
       width="3.8418114"
       height="5.0977449"
       x="290.12415"
       y="256.15164"
       transform="matrix(0.97626841,-0.21656407,0.23048913,0.9730749,0,0)" />
    <rect
       style="fill:#e8e8e8;fill-opacity:1;stroke:#000000;stroke-width:0.482407;stroke-linecap:square;stroke-linejoin:round;stroke-miterlimit:4;stroke-dasharray:none;stroke-opacity:1;paint-order:fill markers stroke"
       id="rect59746-51-0"
       width="3.8418114"
       height="5.0977449"
       x="289.59015"
       y="248.9532"
       transform="matrix(0.97626841,-0.21656407,0.23048913,0.9730749,0,0)" />
    <rect
       style="fill:#e8e8e8;fill-opacity:1;stroke:#000000;stroke-width:0.482407;stroke-linecap:square;stroke-linejoin:round;stroke-miterlimit:4;stroke-dasharray:none;stroke-opacity:1;paint-order:fill markers stroke"
       id="rect59746-7-4"
       width="3.8418114"
       height="5.0977449"
       x="289.22784"
       y="241.02763"
       transform="matrix(0.97626841,-0.21656407,0.23048913,0.9730749,0,0)" />
    <rect
       style="fill:#e8e8e8;fill-opacity:1;stroke:#000000;stroke-width:0.482407;stroke-linecap:square;stroke-linejoin:round;stroke-miterlimit:4;stroke-dasharray:none;stroke-opacity:1;paint-order:fill markers stroke"
       id="rect59746-4-3"
       width="3.8418114"
       height="5.0977449"
       x="288.61588"
       y="233.04651"
       transform="matrix(0.97626841,-0.21656407,0.23048913,0.9730749,0,0)" />
    <rect
       style="fill:#e8e8e8;fill-opacity:1;stroke:#000000;stroke-width:0.482407;stroke-linecap:square;stroke-linejoin:round;stroke-miterlimit:4;stroke-dasharray:none;stroke-opacity:1;paint-order:fill markers stroke"
       id="rect59746-3-8"
       width="3.8418114"
       height="5.0977449"
       x="283.35846"
       y="241.12453"
       transform="matrix(0.97626841,-0.21656407,0.23048913,0.9730749,0,0)" />
    <path
       id="rect60944-6"
       style="fill:#472704;stroke:#2d1700;stroke-width:0.404442;stroke-linecap:square;stroke-linejoin:round;paint-order:fill markers stroke"
       d="m 343.98133,192.30144 -3.25585,0.72835 2.05004,5.97526 3.61863,-0.004 z"
       sodipodi:nodetypes="ccccc" />
    <ellipse
       style="fill:#fadc03;fill-opacity:1;stroke:#000000;stroke-width:0.0323223;stroke-linecap:square;stroke-linejoin:round;stroke-miterlimit:4;stroke-dasharray:none;stroke-opacity:1;paint-order:fill markers stroke"
       id="path62551-4"
       cx="-342.72791"
       cy="196.18033"
       rx="0.29508045"
       ry="0.32944474"
       transform="scale(-1,1)" />
    <path
       id="path65480-0"
       style="fill:#7a7a7a;stroke:#000000;stroke-width:0.0561413;stroke-linecap:square;stroke-linejoin:round;paint-order:fill markers stroke"
       d="m 331.8676,169.40954 c 0.165,0.73935 0.40899,0.5307 0.94981,0.46057 0.56085,-0.0727 1.48765,-0.0385 1.1804,-1.00721 -0.22932,-0.72303 -0.72247,-0.88542 -1.27314,-0.86777 -0.55067,0.0177 -1.02205,0.67514 -0.85707,1.41441 z"
       sodipodi:nodetypes="sssss" />
    <ellipse
       style="fill:#7a7a7a;fill-opacity:1;stroke:#000000;stroke-width:0.0499878;stroke-linecap:square;stroke-linejoin:round;stroke-miterlimit:4;stroke-dasharray:none;stroke-opacity:1;paint-order:fill markers stroke"
       id="path64114-9"
       cx="-332.55859"
       cy="167.77579"
       rx="0.64621043"
       ry="0.62536055"
       transform="scale(-1,1)" />
    <path
       id="path65480-8-7"
       style="fill:#7a7a7a;stroke:#000000;stroke-width:0.0561413;stroke-linecap:square;stroke-linejoin:round;paint-order:fill markers stroke"
       d="m 339.75117,175.8159 c 0.16499,0.73935 0.40898,0.5307 0.94981,0.46057 0.56084,-0.0727 1.48765,-0.0385 1.18039,-1.00721 -0.22932,-0.72303 -0.72247,-0.88542 -1.27314,-0.86777 -0.55067,0.0177 -1.02204,0.67514 -0.85706,1.41441 z"
       sodipodi:nodetypes="sssss" />
    <ellipse
       style="fill:#7a7a7a;fill-opacity:1;stroke:#000000;stroke-width:0.0499878;stroke-linecap:square;stroke-linejoin:round;stroke-miterlimit:4;stroke-dasharray:none;stroke-opacity:1;paint-order:fill markers stroke"
       id="path64114-1-7"
       cx="-340.44214"
       cy="174.18214"
       rx="0.64621043"
       ry="0.62536055"
       transform="scale(-1,1)" />
    <path
       id="path65480-5-5"
       style="fill:#7a7a7a;stroke:#000000;stroke-width:0.0561413;stroke-linecap:square;stroke-linejoin:round;paint-order:fill markers stroke"
       d="m 335.83912,184.78396 c 0.16499,0.73935 0.40898,0.5307 0.94981,0.46057 0.56085,-0.0727 1.48764,-0.0385 1.1804,-1.00721 -0.22932,-0.72303 -0.72247,-0.88542 -1.27314,-0.86777 -0.55068,0.0177 -1.02205,0.67514 -0.85707,1.41441 z"
       sodipodi:nodetypes="sssss" />
    <ellipse
       style="fill:#7a7a7a;fill-opacity:1;stroke:#000000;stroke-width:0.0499878;stroke-linecap:square;stroke-linejoin:round;stroke-miterlimit:4;stroke-dasharray:none;stroke-opacity:1;paint-order:fill markers stroke"
       id="path64114-5-3"
       cx="-336.53009"
       cy="183.15021"
       rx="0.64621043"
       ry="0.62536055"
       transform="scale(-1,1)" />
    <path
       id="path65480-3-8"
       style="fill:#7a7a7a;stroke:#000000;stroke-width:0.0561413;stroke-linecap:square;stroke-linejoin:round;paint-order:fill markers stroke"
       d="m 344.08007,190.36962 c 0.165,0.73934 0.40899,0.53069 0.94981,0.46056 0.56085,-0.0727 1.48765,-0.0385 1.1804,-1.00721 -0.22933,-0.72303 -0.72247,-0.88541 -1.27314,-0.86776 -0.55067,0.0177 -1.02205,0.67513 -0.85707,1.41441 z"
       sodipodi:nodetypes="sssss" />
    <ellipse
       style="fill:#7a7a7a;fill-opacity:1;stroke:#000000;stroke-width:0.0499878;stroke-linecap:square;stroke-linejoin:round;stroke-miterlimit:4;stroke-dasharray:none;stroke-opacity:1;paint-order:fill markers stroke"
       id="path64114-3-7"
       cx="-344.77106"
       cy="188.73586"
       rx="0.64621043"
       ry="0.62536055"
       transform="scale(-1,1)" />
    <path
       id="path66486-9"
       style="fill:#7a7a7a;stroke:#000000;stroke-width:0.0499878;stroke-linecap:square;stroke-linejoin:round;paint-order:fill markers stroke"
       d="m 331.88424,167.99263 c 0,0.2228 -0.0326,-0.63886 0.50753,-0.63886 0.10219,0 0.2416,0.43988 0.32695,0.46674 0.0417,0.0131 0.07,-0.35553 0.10745,-0.3389 0.29129,0.12934 0.4189,0.29806 0.4189,0.138 0,-0.0538 -0.14803,-0.12351 -0.12614,-0.16765 0.0365,-0.0736 0.26139,0.0497 0.16615,-0.0815 -0.0666,-0.0918 -0.56595,-0.34265 -0.91034,-0.26397 -0.52568,0.12011 -0.49051,0.66334 -0.49052,0.88614 z"
       sodipodi:nodetypes="ssssssssss" />
    <path
       id="path68407-7"
       style="fill:#7a7a7a;stroke:#000000;stroke-width:0.0499878;stroke-linecap:square;stroke-linejoin:round;paint-order:fill markers stroke"
       d="m 335.84867,183.09553 c 0,0.10604 0.2483,-0.19589 0.5645,-0.19589 0.16398,0 0.26095,-0.13714 0.40892,-0.14205 0.13734,-0.004 0.33194,0.12522 0.33195,0.0742 0,-0.0354 -0.14549,-0.29037 -0.21012,-0.30283 -0.0377,-0.007 -0.1476,0.0584 -0.19771,0.0321 -0.0622,-0.0327 -0.11837,-0.14384 -0.19699,-0.15495 -0.0752,-0.0106 -0.20002,0.11923 -0.27233,0.10959 -0.13466,-0.0179 -0.28754,0.20882 -0.42231,0.22469 -0.19295,0.0227 -0.006,0.28648 -0.006,0.3552 z"
       sodipodi:nodetypes="ssssssssss" />
    <path
       id="path68407-4-0"
       style="fill:#7a7a7a;stroke:#000000;stroke-width:0.0499878;stroke-linecap:square;stroke-linejoin:round;paint-order:fill markers stroke"
       d="m 344.23606,188.73533 c 0.0167,-0.10481 0.0783,-0.28366 0.39444,-0.28366 0.16399,0 0.26095,-0.13714 0.40892,-0.14204 0.13734,-0.004 0.33194,0.12521 0.33195,0.0742 0,-0.0354 -0.14549,-0.29037 -0.21011,-0.30283 -0.0378,-0.007 -0.1476,0.0584 -0.19772,0.0321 -0.0621,-0.0327 -0.11837,-0.14384 -0.19699,-0.15496 -0.0752,-0.0106 -0.20001,0.11924 -0.27233,0.1096 -0.13466,-0.0179 -0.28753,0.20882 -0.4223,0.22469 -0.19296,0.0227 0.10802,0.79614 0.11881,0.72821 z"
       sodipodi:nodetypes="sssssssssss" />
    <path
       id="path68407-8-3"
       style="fill:#7a7a7a;stroke:#000000;stroke-width:0.0499878;stroke-linecap:square;stroke-linejoin:round;paint-order:fill markers stroke"
       d="m 339.93933,174.267 c -0.0129,-0.0519 0.0363,-0.26139 0.0647,-0.17804 0.0744,0.21881 0.20236,0.71281 0.16565,-0.17162 -0.002,-0.0372 0.058,-0.0531 0.0904,-0.0821 0.12844,-0.11466 0.25566,-0.15431 0.40892,-0.14204 0.12703,0.24561 0.243,0.21496 0.35579,0.34603 0.14665,0.17043 0.27815,0.46275 0.32117,0.4363 0.0839,-0.0516 -0.0995,-0.46452 -0.55229,-0.89305 -0.14185,-0.0985 -0.23773,-0.14843 -0.37487,-0.14483 -0.26557,-0.0105 -0.44363,0.26371 -0.65495,0.43851 -0.0883,0.10705 -0.0265,0.29642 0.0458,0.49914 0.014,0.0393 0.0946,0.39386 0.11068,0.43197 0.0188,0.0445 0.007,-0.29099 0.027,-0.25052 0.0898,0.18479 0.14428,0.32611 0.13374,0.28351 z"
       sodipodi:nodetypes="sssscsscccsssss" />
    <path
       id="rect34298-0"
       style="fill:#f2cd04;stroke:#000000;stroke-width:0.553431;stroke-linecap:square;stroke-linejoin:round;stroke-miterlimit:4;stroke-dasharray:none;stroke-opacity:0;paint-order:fill markers stroke"
       d="m 441.56886,86.98264 2.11217,0.0924 c 0.92755,0.44576 0.83872,-1.76515 2.03006,-1.84558 0.96523,-0.0652 1.55658,-0.68086 2.38287,1.43629 l 0.0943,32.4926 h 2.86652 V 87.36551 c 0.0819,-2.35966 -2.05117,-4.88308 -6.37746,-4.29758 -2.2031,0.29816 -2.72597,2.72953 -3.10845,3.91469 z"
       sodipodi:nodetypes="ccsccccsc" />
    <path
       id="rect41328-8"
       style="fill:#d2b100;fill-opacity:1;stroke:#685802;stroke-width:0.475749;stroke-linecap:square;stroke-linejoin:round;stroke-opacity:0;paint-order:fill markers stroke"
       d="m 441.56886,86.98264 c 1.31815,-3.30238 5.85491,-5.332 8.34513,-0.77897 0.073,7.83616 0.33664,14.72621 0.29065,22.47228 -0.0208,3.50661 0.0696,6.98661 0.12425,10.48242 h 0.72588 l -0.0754,-32.82267 c -0.18322,-1.93554 -3.19921,-3.76827 -6.11805,-3.31662 -1.51399,0.23427 -3.80805,2.38375 -3.29243,3.96356 z"
       sodipodi:nodetypes="ccscccsc" />
    <rect
       style="fill:#f2cd04;fill-opacity:1;stroke:#000000;stroke-width:0.553431;stroke-linecap:square;stroke-linejoin:round;stroke-miterlimit:4;stroke-dasharray:none;stroke-opacity:0;paint-order:fill markers stroke"
       id="rect38716-4"
       width="6.4873857"
       height="9.7438183"
       x="-446.00067"
       y="86.599739"
       transform="scale(-1,1)" />
    <ellipse
       style="fill:#fdd500;fill-opacity:1;stroke:#917a00;stroke-width:0.371962;stroke-linecap:square;stroke-linejoin:round;stroke-miterlimit:4;stroke-dasharray:none;stroke-opacity:1;paint-order:fill markers stroke"
       id="path38740-8"
       cx="-442.64383"
       cy="91.61689"
       rx="1.7302868"
       ry="1.2641898"
       transform="scale(-1,1)" />
    <ellipse
       style="fill:#c90c10;fill-opacity:1;stroke:#917a00;stroke-width:0.368344;stroke-linecap:square;stroke-linejoin:round;stroke-miterlimit:4;stroke-dasharray:none;stroke-opacity:1;paint-order:fill markers stroke"
       id="path38740-9-37"
       cx="-442.64383"
       cy="88.448158"
       rx="1.6947315"
       ry="1.2657259"
       transform="scale(-1,1)" />
    <ellipse
       style="fill:#49d400;fill-opacity:1;stroke:#917a00;stroke-width:0.368344;stroke-linecap:square;stroke-linejoin:round;stroke-miterlimit:4;stroke-dasharray:none;stroke-opacity:1;paint-order:fill markers stroke"
       id="path38740-9-3-5"
       cx="-442.68155"
       cy="94.574364"
       rx="1.6947315"
       ry="1.2657259"
       transform="scale(-1,1)" />
    <path
       id="rect50526-7"
       style="fill:#d2b100;stroke:#000000;stroke-width:0.553431;stroke-linecap:square;stroke-linejoin:round;stroke-opacity:0;paint-order:fill markers stroke"
       d="m 446.00065,86.59976 -0.52804,0.0264 0.0703,9.45188 -5.98536,-0.035 -0.0443,0.30055 h 6.60053 z"
       sodipodi:nodetypes="ccccccc" />
    <rect
       style="fill:#d2b100;fill-opacity:1;stroke:#000000;stroke-width:0.53077;stroke-linecap:square;stroke-linejoin:round;stroke-miterlimit:4;stroke-dasharray:none;stroke-opacity:0;paint-order:fill markers stroke"
       id="rect57839-8"
       width="6.4874034"
       height="0.36968523"
       x="-446.00067"
       y="86.599739"
       transform="scale(-1,1)" />
    <rect
       style="fill:#353535;fill-opacity:1;stroke:#000000;stroke-width:0.836;stroke-linecap:square;stroke-linejoin:round;stroke-miterlimit:4;stroke-dasharray:none;stroke-opacity:1;paint-order:fill markers stroke"
       id="rect11153-1-2"
       width="4.0386677"
       height="38.36734"
       x="411.5238"
       y="161.89507" />
    <rect
       style="fill:#353535;fill-opacity:1;stroke:#000000;stroke-width:0.836;stroke-linecap:square;stroke-linejoin:round;stroke-miterlimit:4;stroke-dasharray:none;stroke-opacity:1;paint-order:fill markers stroke"
       id="rect11153-2-2-8"
       width="4.0386677"
       height="38.36734"
       x="363.81705"
       y="161.13782" />
    <path
       id="rect858-7-0"
       style="fill:#353535;fill-opacity:1;stroke:#000000;stroke-width:2.61282;stroke-linecap:square;stroke-linejoin:round;stroke-miterlimit:4;stroke-dasharray:none;stroke-opacity:1;paint-order:fill markers stroke"
       d="m 322.70001,115.88709 c 52.54458,-3.39638 91.03927,-6.18604 144.28822,0.24869 -1.1607,-0.32765 10.31952,13.44316 13.70022,20.40356 -2.56405,6.4153 -14.71766,22.01449 -13.4485,22.43246 -49.35911,2.49569 -97.85776,3.29117 -144.53994,0.49737 l -14.59942,-21.69525 z"
       sodipodi:nodetypes="ccccccc" />
    <path
       style="fill:#3f3f3f;fill-opacity:1;stroke:#242222;stroke-width:1.62987;stroke-linecap:square;stroke-linejoin:round;stroke-miterlimit:4;stroke-dasharray:none;stroke-opacity:1;paint-order:fill markers stroke"
       id="path75875-1"
       d="m 421.22237,114.88893 c 0.34065,0.0647 0.68715,0.11333 1.02193,0.19377 1.68832,0.40545 3.75793,1.03823 5.31328,1.54256 3.08087,0.99901 5.85613,1.97376 8.82344,3.17612 1.5057,0.61013 2.9673,1.28124 4.45095,1.92186 1.2777,0.65351 2.60973,1.24946 3.83311,1.96055 2.7381,1.59155 5.35864,3.62086 6.31201,6.22674 0.6757,1.8469 0.31716,2.89923 0.0965,4.77831 -0.55258,2.78035 -1.75716,5.45365 -2.43199,8.21378 -0.45078,1.84368 -0.77799,3.46824 -0.34465,5.33822 0.18511,0.79883 0.64801,1.54563 0.97203,2.31845 0.58148,0.66045 1.0502,1.38719 1.74444,1.98135 2.69253,2.30438 6.97876,3.53588 10.79263,4.31776 0.71924,0.14745 1.45327,0.24946 2.17991,0.3742 0,0 0.0596,-0.0314 0.0596,-0.0314 v 0 c -0.72709,-0.12432 -1.4616,-0.22582 -2.18127,-0.37297 -3.81371,-0.77975 -8.09914,-2.01041 -10.79139,-4.31409 -0.6939,-0.59374 -1.16248,-1.31996 -1.74371,-1.97996 -0.32398,-0.77232 -0.78684,-1.51862 -0.97196,-2.31696 -0.43344,-1.86916 -0.10649,-3.49359 0.34419,-5.33649 0.67497,-2.76063 1.88035,-5.43427 2.4334,-8.21505 0.22063,-1.8803 0.57958,-2.93296 -0.0976,-4.78093 -0.95511,-2.6067 -3.5793,-4.6356 -6.31922,-6.22677 -1.2241,-0.71088 -2.5567,-1.30669 -3.83504,-1.96004 -1.48376,-0.64065 -2.9456,-1.31157 -4.45127,-1.92197 -2.96697,-1.20283 -5.73889,-2.17783 -8.81828,-3.1792 -1.55316,-0.50507 -3.62014,-1.13957 -5.30576,-1.54738 -0.3342,-0.0809 -0.68011,-0.13045 -1.02015,-0.1957 0,0 -0.0653,0.0353 -0.0653,0.0353 z" />
    <path
       style="fill:#3f3f3f;fill-opacity:1;stroke:#242222;stroke-width:1.15;stroke-linecap:square;stroke-linejoin:round;stroke-miterlimit:4;stroke-dasharray:none;stroke-opacity:1;paint-order:fill markers stroke"
       id="path78300-0"
       d="m 338.01411,117.46649 c 0.28455,0.8687 0.68835,1.70223 1.24778,2.42857 0.18254,0.237 0.38474,0.45819 0.57711,0.68729 1.38253,1.41442 2.96171,2.63572 4.66098,3.64701 0.39893,0.23741 0.80993,0.45392 1.21489,0.68088 2.60393,1.36016 5.26513,2.60638 7.95445,3.78731 1.78954,0.74906 3.6171,1.40319 5.4483,2.04183 0.81446,0.20565 1.50216,0.64244 2.18702,1.10865 0.98879,0.65031 1.97497,1.29973 2.9317,1.99645 0.67889,0.52022 1.11459,1.25127 1.5194,1.98867 0.2804,0.53959 0.46439,1.11817 0.64266,1.69696 0.2122,0.66129 0.33964,1.34341 0.46949,2.0243 0.0195,0.11271 0.0389,0.22541 0.0583,0.33812 0,0 0.043,-0.0228 0.043,-0.0228 v 0 c -0.0195,-0.11271 -0.039,-0.22542 -0.0584,-0.33814 -0.12999,-0.68106 -0.2572,-1.36343 -0.46953,-2.02488 -0.17826,-0.57914 -0.36246,-1.158 -0.64335,-1.69771 -0.40548,-0.73782 -0.84142,-1.46961 -1.52085,-1.99028 -0.95706,-0.69641 -1.94366,-1.34533 -2.93201,-1.99643 -0.68491,-0.4673 -1.37245,-0.90472 -2.18796,-1.10954 -1.8321,-0.63763 -3.66058,-1.29074 -5.4507,-2.03978 -2.68937,-1.18048 -5.35055,-2.42651 -7.95416,-3.78698 -0.40486,-0.22694 -0.81576,-0.44341 -1.21458,-0.6808 -1.69863,-1.0111 -3.2772,-2.23226 -4.65875,-3.64674 -0.19216,-0.22906 -0.39414,-0.45022 -0.57646,-0.68719 -0.55871,-0.72615 -0.96216,-1.55946 -1.24489,-2.4282 0,0 -0.0434,0.0234 -0.0434,0.0234 z" />
    <path
       style="fill:#3f3f3f;fill-opacity:1;stroke:#242222;stroke-width:1.15;stroke-linecap:square;stroke-linejoin:round;stroke-miterlimit:4;stroke-dasharray:none;stroke-opacity:1;paint-order:fill markers stroke"
       id="path78304-7"
       d="m 366.83741,136.44394 c 0.49974,-0.5453 0.97895,-1.10934 1.38796,-1.7264 0.39378,-0.54467 0.6678,-1.1663 1.04534,-1.72082 0.21682,-0.31846 0.29627,-0.37957 0.5584,-0.65425 0.5801,-0.57309 1.34073,-0.69089 2.12235,-0.72123 1.13695,0.0377 2.25071,0.27915 3.3737,0.43726 0.88775,0.12693 1.79029,0.16467 2.66832,-0.0512 0.62846,-0.15454 0.8599,-0.28669 1.46318,-0.54812 2.21607,-1.02525 3.95072,-2.77868 5.67674,-4.4582 1.49295,-1.47931 2.93004,-3.01396 4.37754,-4.53749 0.77052,-0.77825 1.50275,-1.5918 2.2691,-2.37439 0.83066,-0.84849 1.65216,-1.70814 2.4417,-2.59526 0.37585,-0.47948 0.80259,-0.92617 1.08866,-1.46815 0.13006,-0.27497 0.15966,-0.57454 0.17789,-0.87366 0,0 -0.0441,0.0221 -0.0441,0.0221 v 0 c -0.0184,0.29856 -0.0483,0.59748 -0.17868,0.87171 -0.28657,0.541 -0.7124,0.98765 -1.08801,1.46659 -0.78952,0.887 -1.61073,1.74674 -2.44154,2.59495 -0.76626,0.7825 -1.49855,1.59584 -2.26869,2.3743 -1.4464,1.5234 -2.88262,3.05773 -4.37513,4.5363 -1.70355,1.65742 -3.41498,3.39514 -5.59886,4.41219 -0.60247,0.26143 -0.83447,0.39389 -1.46215,0.54869 -0.87758,0.21645 -1.77973,0.17914 -2.66719,0.0523 -1.12302,-0.15806 -2.23669,-0.39963 -3.37358,-0.43839 -0.81306,0.0306 -1.60225,0.17486 -2.20588,0.76835 -0.26251,0.27573 -0.34066,0.33566 -0.55785,0.65514 -0.3771,0.55473 -0.6515,1.17603 -1.04533,1.72061 -0.40979,0.61695 -0.8894,1.18099 -1.3894,1.72655 0,0 0.0455,-0.0194 0.0455,-0.0194 z" />
    <path
       style="fill:#3f3f3f;fill-opacity:1;stroke:#242222;stroke-width:1.15;stroke-linecap:square;stroke-linejoin:round;stroke-miterlimit:4;stroke-dasharray:none;stroke-opacity:1;paint-order:fill markers stroke"
       id="path78302-1"
       d="m 366.77805,139.68927 c -0.68601,0.75983 -1.44664,1.42797 -2.26515,2.04137 -1.12112,0.79161 -2.39249,1.28886 -3.68997,1.70377 -0.25476,0.0678 -0.50778,0.14251 -0.76429,0.20339 -0.51457,0.12211 -1.47027,0.30394 -1.96624,0.4003 -1.2833,0.24933 -2.56542,0.50428 -3.84824,0.75607 -1.90523,0.40073 -3.80599,0.91152 -5.55147,1.79469 -0.27783,0.14058 -0.54288,0.30508 -0.81432,0.45761 -1.05452,0.65799 -2.01092,1.47114 -2.67163,2.53606 -0.10733,0.17298 -0.1966,0.35653 -0.2949,0.53479 -0.53726,1.08184 -0.85798,2.24966 -1.11739,3.4241 -0.18887,0.86762 -0.34499,1.74178 -0.51394,2.61353 -0.0596,0.46874 -0.13004,0.93286 -0.21345,1.39782 -0.0447,0.24966 -0.0651,0.50237 -0.0814,0.75513 0,0 0.044,-0.0221 0.044,-0.0221 v 0 c 0.0165,-0.25258 0.0369,-0.50512 0.0816,-0.75459 0.0835,-0.46486 0.15314,-0.929 0.21308,-1.39758 0.16852,-0.87157 0.32406,-1.74561 0.51304,-2.61294 0.25949,-1.17408 0.58019,-2.34154 1.11786,-3.42282 0.0983,-0.17811 0.1877,-0.3615 0.29505,-0.53433 0.64424,-1.03717 1.57103,-1.83614 2.59203,-2.48798 0.27143,-0.15269 0.53646,-0.31737 0.81429,-0.45808 1.74544,-0.88399 3.64646,-1.39544 5.55198,-1.79642 1.2825,-0.25165 2.56429,-0.50646 3.84732,-0.75539 0.49252,-0.0956 1.45389,-0.27818 1.96551,-0.39936 0.25648,-0.0607 0.50947,-0.13535 0.7642,-0.20302 1.32807,-0.42428 2.62458,-0.93897 3.77128,-1.75016 0.81887,-0.61405 1.57914,-1.28341 2.26702,-2.04229 0,0 -0.0459,0.0184 -0.0459,0.0184 z" />
    <text
       xml:space="preserve"
       style="font-size:18.7421px;line-height:1.25;font-family:'Akira Expanded';-inkscape-font-specification:'Akira Expanded, ';fill:#ffffff;fill-opacity:1;stroke:#000000;stroke-width:1.05334;stroke-miterlimit:4;stroke-dasharray:none;stroke-opacity:1"
       x="361.54514"
       y="125.83964"
       id="text34893-6-4"
       transform="scale(0.87463116,1.1433391)"
       inkscape:transform-center-x="-3.3300904"
       inkscape:transform-center-y="-6.2333447"><tspan
         sodipodi:role="line"
         id="tspan34891-0-9"
         style="font-style:normal;font-variant:normal;font-weight:normal;font-stretch:normal;font-family:'Akira Expanded';-inkscape-font-specification:'Akira Expanded, ';fill:#ffffff;fill-opacity:1;stroke:#000000;stroke-width:1.05334;stroke-miterlimit:4;stroke-dasharray:none;stroke-opacity:1"
         x="361.54514"
         y="125.83964">V i c t o r i a</tspan></text>
    <ellipse
       style="fill:#7a7a7a;fill-opacity:1;stroke:#000000;stroke-width:0.104907;stroke-linecap:square;stroke-linejoin:round;stroke-miterlimit:4;stroke-dasharray:none;stroke-opacity:1;paint-order:fill markers stroke"
       id="path74076-9"
       cx="293.59296"
       cy="-220.32858"
       rx="1.7910471"
       ry="1.1187005"
       transform="matrix(0.46783178,0.88381753,-0.89192395,0.45218543,0,0)"
       inkscape:transform-center-x="0.047316937"
       inkscape:transform-center-y="-0.069455425" />
    <ellipse
       style="fill:#3f3f3f;fill-opacity:1;stroke:#000000;stroke-width:0.0524544;stroke-linecap:square;stroke-linejoin:round;stroke-miterlimit:4;stroke-dasharray:none;stroke-opacity:1;paint-order:fill markers stroke"
       id="path75372-1"
       cx="196.86269"
       cy="309.79282"
       rx="0.24988632"
       ry="0.59398669"
       transform="matrix(0.85527676,-0.51817146,0.53458858,0.84511245,0,0)" />
    <path
       id="rect74848-3"
       style="fill:#7a7a7a;stroke:#000000;stroke-width:0.0898076;stroke-linecap:square;stroke-linejoin:round;paint-order:fill markers stroke"
       d="m 335.66616,157.9685 c 0.0252,0.0711 -1.27978,1.5604 -1.57588,1.97012 l -0.19442,-0.0946 c 0.58547,-0.56282 1.21799,-1.48953 1.77035,-1.87554 z"
       sodipodi:nodetypes="cccc" />
    <path
       id="rect74848-5-1"
       style="fill:#7a7a7a;stroke:#000000;stroke-width:0.0553521;stroke-linecap:square;stroke-linejoin:round;paint-order:fill markers stroke"
       d="m 335.3405,159.03254 c 0.008,0.043 -1.01087,0.71368 -1.25022,0.90608 l -0.11638,-0.0773 c 0.44551,-0.2419 0.96257,-0.68173 1.36663,-0.82875 z"
       sodipodi:nodetypes="cccc" />
    <path
       style="fill:#3f3f3f;fill-opacity:1;stroke:#242222;stroke-width:1.18326;stroke-linecap:square;stroke-linejoin:round;stroke-miterlimit:4;stroke-dasharray:none;stroke-opacity:1;paint-order:fill markers stroke"
       id="path78306-1"
       d="m 402.24811,159.58472 c -0.24979,-1.03376 -0.2231,-2.10353 -0.15409,-3.15714 0.14172,-1.06014 0.47139,-2.09561 1.17285,-2.91517 0.48233,-0.56356 0.77637,-0.72452 1.37319,-1.16297 1.00781,-0.62249 2.11313,-1.16224 3.29659,-1.31825 0.81219,-0.10705 1.1017,-0.0305 1.92398,0.0478 1.35898,0.24439 2.72289,0.5787 3.99616,1.13388 0.74293,0.32393 1.39037,0.69828 2.10419,1.08679 2.09399,1.11101 4.25822,2.15711 6.55148,2.76985 0.37523,0.10025 0.75811,0.16796 1.13717,0.25194 1.59861,0.27134 3.2516,0.22803 4.76388,-0.41767 0.21281,-0.0909 0.41267,-0.21049 0.61902,-0.31574 1.14449,-0.6434 1.84385,-1.58152 2.56059,-2.65772 0.31056,-0.44667 0.50899,-1.07119 1.01637,-1.34111 0.24858,-0.13224 0.52838,-0.12922 0.79809,-0.15849 1.06666,-0.0376 2.1239,0.14505 3.14653,0.44046 0.93314,0.2829 1.84475,0.62731 2.61661,1.24949 0.18098,0.14589 0.34575,0.31152 0.51863,0.46727 1.0718,1.03541 2.02712,2.17955 2.80276,3.45992 0.3831,0.69921 0.19695,0.36314 0.5578,1.00863 0,0 0.0424,-0.0249 0.0424,-0.0249 v 0 c -0.36128,-0.64528 -0.17494,-0.30924 -0.55834,-1.00851 -0.77615,-1.28062 -1.73209,-2.42474 -2.80362,-3.46108 -0.1729,-0.15596 -0.3377,-0.32181 -0.51871,-0.4679 -0.77191,-0.62293 -1.68366,-0.96786 -2.61724,-1.25104 -1.02283,-0.29608 -2.08034,-0.47859 -3.14738,-0.44217 -0.39778,0.0422 -0.52813,0.015 -0.88351,0.20697 -0.50563,0.27327 -0.70429,0.89453 -1.01493,1.34228 -0.68665,1.03061 -1.38968,1.98186 -2.47836,2.60719 -0.20632,0.1055 -0.40615,0.22538 -0.61897,0.31648 -1.51175,0.64712 -3.16478,0.69138 -4.7635,0.42068 -0.37909,-0.0838 -0.76201,-0.15131 -1.13728,-0.25141 -2.29332,-0.61162 -4.45781,-1.65686 -6.55095,-2.76909 -0.7124,-0.38819 -1.36204,-0.76415 -2.10374,-1.08785 -1.27337,-0.55573 -2.63778,-0.88948 -3.99684,-1.13494 -0.82185,-0.0788 -1.11249,-0.1557 -1.92443,-0.0492 -1.21644,0.15946 -2.3428,0.72735 -3.37837,1.36522 -0.59709,0.43926 -0.89071,0.60008 -1.37302,1.16459 -0.70118,0.82066 -1.0304,1.85698 -1.17199,2.91777 -0.0691,1.05449 -0.096,2.12491 0.15283,3.15975 0,0 0.0442,-0.0245 0.0442,-0.0245 z" />
    <path
       style="fill:#3f3f3f;fill-opacity:1;stroke:#242222;stroke-width:0.921165;stroke-linecap:square;stroke-linejoin:round;stroke-miterlimit:4;stroke-dasharray:none;stroke-opacity:1;paint-order:fill markers stroke"
       id="path78308-6"
       d="m 364.68197,177.37094 c 0.47797,0.19059 0.76694,0.43394 1.10253,1.01251 0.28824,0.50495 0.41048,1.16424 0.54154,1.79963 0.0878,0.48056 0.18108,0.97797 0.3741,1.37894 0.13099,0.19305 0.0617,0.10674 0.20739,0.26008 0,0 0.0262,-0.0268 0.0262,-0.0268 v 0 c -0.14537,-0.15238 -0.0762,-0.0665 -0.20689,-0.25864 -0.1929,-0.40037 -0.28577,-0.89743 -0.37381,-1.37727 -0.13129,-0.63602 -0.25362,-1.29598 -0.54227,-1.8014 -0.3362,-0.57982 -0.62477,-0.82302 -1.10333,-1.01582 0,0 -0.0255,0.0288 -0.0255,0.0288 z" />
    <path
       id="rect13431-3"
       style="fill:#1c1c1c;fill-opacity:1;stroke:#000000;stroke-width:0.26371;stroke-linecap:square;stroke-linejoin:round;stroke-opacity:1;paint-order:fill markers stroke"
       d="m 439.20086,201.16845 2.47109,-0.18184 c -7.85821,-53.48735 -13.25784,-73.16238 -2.47109,0.18184 z"
       sodipodi:nodetypes="ccc" />
    <rect
       style="fill:#1c1c1c;fill-opacity:1;stroke:#000000;stroke-width:0.233578;stroke-linecap:square;stroke-linejoin:round;stroke-opacity:1;paint-order:fill markers stroke"
       id="rect5055-87"
       width="17.553013"
       height="4.9378729"
       x="-364.34756"
       y="303.40466"
       transform="matrix(-0.93167768,0.36328598,0.33597509,0.94187087,0,0)" />
    <rect
       style="fill:#e1e1e1;fill-opacity:1;stroke:#000000;stroke-width:0.18543;stroke-linecap:square;stroke-linejoin:round;stroke-opacity:0;paint-order:fill markers stroke"
       id="rect5409-4"
       width="8.1359043"
       height="1.746608"
       x="-361.81134"
       y="304.93091"
       transform="matrix(-0.93167768,0.36328598,0.33597509,0.94187087,0,0)" />
    <path
       id="rect23908-1-8-1"
       style="fill:#e1e1e1;fill-opacity:1;stroke:#000000;stroke-width:0;stroke-linecap:square;stroke-linejoin:round;paint-order:fill markers stroke"
       d="m 428.02182,161.12404 4.60259,-3.5275 1.12173,3.30147 z"
       sodipodi:nodetypes="cccc" />
    <rect
       style="fill:#1c1c1c;fill-opacity:1;stroke:#000000;stroke-width:0.235943;stroke-linecap:square;stroke-linejoin:round;stroke-opacity:1;paint-order:fill markers stroke"
       id="rect5055-8-3"
       width="17.448158"
       height="5.0686374"
       x="412.1022"
       y="299.06122"
       transform="matrix(0.94895896,-0.31539957,0.11845985,0.99295884,0,0)" />
    <rect
       style="fill:#e1e1e1;fill-opacity:1;stroke:#000000;stroke-width:0.187308;stroke-linecap:square;stroke-linejoin:round;stroke-opacity:0;paint-order:fill markers stroke"
       id="rect5409-7-8"
       width="8.0873032"
       height="1.7928616"
       x="414.62326"
       y="300.62787"
       transform="matrix(0.94895896,-0.31539957,0.11845985,0.99295884,0,0)" />
    <path
       id="rect23908-1-8-0-0"
       style="fill:#e1e1e1;fill-opacity:1;stroke:#000000;stroke-width:0;stroke-linecap:square;stroke-linejoin:round;paint-order:fill markers stroke"
       d="m 441.1089,164.596 -5.40575,0.0852 0.47347,3.53548 z"
       sodipodi:nodetypes="cccc" />
    <rect
       style="fill:#1c1c1c;fill-opacity:1;stroke:#000000;stroke-width:0.409773;stroke-linecap:square;stroke-linejoin:round;stroke-opacity:1;paint-order:fill markers stroke"
       id="rect14082-4"
       width="21.244513"
       height="6.0097103"
       x="-421.21982"
       y="257.0842"
       transform="matrix(-0.97987313,0.19962128,0.13055413,0.99144118,0,0)" />
    <text
       xml:space="preserve"
       style="font-size:3.72353px;line-height:1.25;font-family:'Akira Expanded';-inkscape-font-specification:'Akira Expanded, ';fill:#ffffff;fill-opacity:1;stroke:#000000;stroke-width:0.304333;stroke-miterlimit:4;stroke-dasharray:none;stroke-opacity:1"
       x="435.46008"
       y="239.83369"
       id="text27164-1"
       transform="matrix(0.90181603,-0.18310243,0.14175028,1.080093,0,0)"><tspan
         sodipodi:role="line"
         id="tspan27162-4"
         style="fill:#ffffff;fill-opacity:1;stroke:#000000;stroke-width:0.304333;stroke-miterlimit:4;stroke-dasharray:none;stroke-opacity:1"
         x="435.46008"
         y="239.83369">Bv. City</tspan></text>
    <path
       id="rect13679-2-3"
       style="fill:#353535;fill-opacity:1;stroke:#000000;stroke-width:1.90996;stroke-linecap:square;stroke-linejoin:round;stroke-miterlimit:4;stroke-dasharray:none;paint-order:fill markers stroke"
       d="m 335.94705,199.15347 19.84242,-0.0883 11.00311,-6.21382 11.23714,7.5635 31.86177,-0.9598 19.83467,3.18225 14.29296,-3.23653 -1.87329,13.34904 3.62852,27.70386 c -11.74601,-0.89931 -24.27481,0.1315 -34.82281,-3.72175 l -14.06352,3.00431 -59.938,-0.51909 1.65229,-23.24346 z"
       sodipodi:nodetypes="cccccccccccccc" />
    <path
       style="fill:#3f3f3f;fill-opacity:1;stroke:#242222;stroke-width:1.12791;stroke-linecap:square;stroke-linejoin:round;stroke-miterlimit:4;stroke-dasharray:none;stroke-opacity:1;paint-order:fill markers stroke"
       id="path78312-3"
       d="m 370.14247,237.93867 c 0.10089,-1.33046 0.7988,-2.54693 1.40481,-3.71797 0.8634,-1.54663 1.89546,-3.01788 3.20053,-4.2542 0.80599,-0.76352 1.10839,-0.93349 2.01069,-1.57895 1.39932,-0.90379 2.93953,-1.57074 4.54549,-2.05279 0.79127,-0.23752 1.60693,-0.42537 2.40981,-0.62122 1.60718,-0.39393 3.21559,-0.81047 4.75101,-1.422 0.909,-0.36204 1.06047,-0.46489 1.90746,-0.90093 1.41657,-0.76893 2.52074,-1.9022 3.55122,-3.08881 0.0955,-0.12105 0.1911,-0.24211 0.28664,-0.36317 0,0 -0.0442,0.0183 -0.0442,0.0183 v 0 c -0.0954,0.12093 -0.19091,0.24188 -0.28636,0.36282 -1.00998,1.16332 -2.09104,2.27761 -3.47149,3.04315 -0.84686,0.43635 -0.99872,0.5395 -1.90764,0.90178 -1.53526,0.61194 -3.14365,1.02863 -4.75086,1.42251 -0.80259,0.19571 -1.61906,0.38371 -2.41008,0.62098 -1.63489,0.49037 -3.1982,1.17602 -4.62271,2.09531 -0.90244,0.64598 -1.20413,0.81556 -2.01017,1.57962 -1.30493,1.23696 -2.33661,2.70877 -3.20052,4.25552 -0.60708,1.17228 -1.3061,2.38957 -1.40758,3.72158 0,0 0.0439,-0.0215 0.0439,-0.0215 z" />
    <path
       style="fill:#3f3f3f;fill-opacity:1;stroke:#242222;stroke-width:1.15;stroke-linecap:square;stroke-linejoin:round;stroke-miterlimit:4;stroke-dasharray:none;stroke-opacity:1;paint-order:fill markers stroke"
       id="path78316-2"
       d="m 404.65478,218.347 c 0.54371,-1.26431 1.13897,-2.50263 1.81275,-3.70261 0.59474,-0.97031 1.29376,-1.89934 2.21321,-2.58712 0.58131,-0.43485 0.91558,-0.57739 1.5562,-0.9133 1.23988,-0.56662 2.52074,-1.05305 3.84467,-1.38446 0.52023,-0.13022 1.17387,-0.25138 1.7032,-0.35491 1.14415,-0.22415 2.31956,-0.30064 3.44483,-0.61403 0.91104,-0.36205 1.34618,-1.19671 1.69687,-2.05612 0.29676,-0.80397 0.3927,-1.65251 0.43645,-2.50209 -2.5e-4,-0.46279 0.0692,-0.92123 0.12081,-1.38005 0,0 -0.044,0.0218 -0.044,0.0218 v 0 c -0.0515,0.45882 -0.12049,0.9173 -0.12017,1.38007 -0.0438,0.84902 -0.13966,1.69705 -0.43666,2.50038 -0.33505,0.81918 -0.74916,1.65402 -1.61495,2.00651 -1.12536,0.31482 -2.30142,0.39096 -3.44594,0.61536 -0.52757,0.1032 -1.1855,0.22527 -1.70384,0.35494 -1.32406,0.33124 -2.60502,0.81758 -3.84523,1.38365 -0.65563,0.34693 -1.0475,0.51938 -1.63544,0.95975 -0.91916,0.68847 -1.61797,1.61798 -2.21253,2.58861 -0.67404,1.20075 -1.26899,2.43997 -1.81527,3.70399 0,0 0.045,-0.0204 0.045,-0.0204 z" />
    <path
       style="fill:#3f3f3f;fill-opacity:1;stroke:#242222;stroke-width:1.12201;stroke-linecap:square;stroke-linejoin:round;stroke-miterlimit:4;stroke-dasharray:none;stroke-opacity:1;paint-order:fill markers stroke"
       id="path78314-8"
       d="m 394.66711,220.29688 c 0.84932,-0.088 1.6573,-0.42236 2.47782,-0.6516 0.32379,-0.0904 0.6503,-0.16985 0.97545,-0.25479 2.15045,-0.44542 4.34608,-0.71568 6.54066,-0.69748 0.41882,0.003 0.83708,0.0329 1.25563,0.0494 2.36328,0.16669 4.65693,0.82516 6.9432,1.43527 1.99003,0.51092 3.98144,1.04756 6.02173,1.28649 0.48409,0.0567 0.97066,0.0867 1.45599,0.13016 2.38073,0.0834 4.78759,-0.1731 7.09,-0.83444 0.32699,-0.0939 0.64571,-0.21729 0.96857,-0.32594 1.51539,-0.58229 2.69281,-1.6966 3.79053,-2.89864 1.00881,-1.09627 1.90165,-2.29931 2.90465,-3.40074 0.92349,-0.92653 1.81406,-1.88615 2.56077,-2.97772 0.65916,-1.01502 1.10318,-2.15968 1.6421,-3.24645 0.47232,-1.01835 1.00224,-2.0011 1.58085,-2.95578 0.4217,-0.66689 0.79434,-1.36332 1.08839,-2.10237 0.1943,-0.51472 0.28368,-1.05307 0.2466,-1.60398 0,0 -0.0414,0.0226 -0.0414,0.0226 v 0 c 0.0368,0.5502 -0.0529,1.08779 -0.24711,1.60172 -0.29427,0.73861 -0.6668,1.43473 -1.08829,2.10141 -0.57831,0.95477 -1.10768,1.93777 -1.58017,2.95591 -0.53875,1.08672 -0.98285,2.23128 -1.64247,3.24587 -0.74704,1.09097 -1.63728,2.05043 -2.56051,2.97688 -1.00269,1.10172 -1.8957,2.30463 -2.90467,3.40075 -1.077,1.17888 -2.22817,2.28131 -3.71483,2.85244 -0.32296,0.10889 -0.64177,0.23253 -0.9689,0.32666 -2.30222,0.66249 -4.70926,0.91967 -7.09008,0.83625 -0.48518,-0.0434 -0.97159,-0.0735 -1.45553,-0.13022 -2.03998,-0.23904 -4.03105,-0.77591 -6.02085,-1.28654 -2.28654,-0.61022 -4.58043,-1.26892 -6.944,-1.43583 -0.41865,-0.0164 -0.83702,-0.046 -1.25597,-0.0494 -2.19437,-0.0182 -4.38976,0.25178 -6.54024,0.6959 -0.32498,0.0847 -0.65132,0.1639 -0.97496,0.25417 -0.81964,0.22865 -1.62665,0.56223 -2.47484,0.65094 0,0 -0.038,0.0291 -0.038,0.0291 z" />
    <rect
       style="fill:#353535;fill-opacity:1;stroke:#000000;stroke-width:1.16784;stroke-linecap:square;stroke-linejoin:round;stroke-miterlimit:4;stroke-dasharray:none;stroke-opacity:1;paint-order:fill markers stroke"
       id="rect14912-3-3"
       width="35.506504"
       height="25.409836"
       x="373.48608"
       y="206.28029" />
    <path
       id="rect23908-1-6"
       style="stroke:#000000;stroke-width:0;stroke-linecap:square;stroke-linejoin:round;paint-order:fill markers stroke"
       d="m 404.39154,218.72929 -23.04301,-9.40976 0.21994,20.30317 z"
       sodipodi:nodetypes="cccc" />
    <path
       style="fill:#3f3f3f;fill-opacity:1;stroke:#242222;stroke-width:1.53714;stroke-linecap:square;stroke-linejoin:round;stroke-miterlimit:4;stroke-dasharray:none;stroke-opacity:1;paint-order:fill markers stroke"
       id="path78310-9"
       d="m 355.72546,200.96694 c 0.0554,1.77508 -0.0677,1.67037 -0.29442,3.43417 -0.23102,1.47519 -0.67484,2.9172 -1.39965,4.27424 -0.43206,0.80896 -0.67915,1.13318 -1.19827,1.90286 -1.22098,1.71129 -2.91128,3.123 -4.39751,4.66092 -0.31911,0.3302 -0.61818,0.67401 -0.92726,1.01102 -1.12479,1.38889 -2.06131,2.93432 -2.4219,4.60843 -0.22372,1.03865 -0.14822,1.44358 -0.11694,2.4892 0.21481,2.06838 1.37953,3.91332 2.08936,5.86962 0.35538,1.15184 0.30648,2.31209 -0.46119,3.34622 2.64604,-0.8839 -8.44858,5.17202 -7.85572,5.23446 l 3.0701,-2.10603 c 2.46474,-1.69076 0.49963,0.0572 2.97017,-1.49083 0.84042,-0.62916 1.28721,-0.86494 1.87748,-1.66164 0.76729,-1.03567 0.81508,-2.19736 0.45923,-3.35017 -0.71028,-1.95556 -1.8757,-3.79963 -2.0901,-5.86751 -0.031,-1.04547 -0.10649,-1.44932 0.11766,-2.48774 0.36114,-1.67352 1.29789,-3.21814 2.42292,-4.60631 0.30911,-0.33692 0.60821,-0.68062 0.92733,-1.01075 1.48676,-1.5381 3.1773,-2.95022 4.39792,-4.66225 0.51909,-0.77008 0.76597,-1.09414 1.19788,-1.90354 0.72444,-1.35754 1.16767,-2.80003 1.39851,-4.27554 0.22686,-1.76462 0.28548,-1.63294 0.2344,-3.40883 z"
       sodipodi:nodetypes="ccscscsccccscsccccscscccc" />
    <path
       style="fill:#3f3f3f;fill-opacity:1;stroke:#242222;stroke-width:1.21189;stroke-linecap:square;stroke-linejoin:round;stroke-miterlimit:4;stroke-dasharray:none;stroke-opacity:1;paint-order:fill markers stroke"
       id="path78318-6"
       d="m 443.98281,238.6659 c -1.71849,-0.98699 -3.51194,-1.8531 -5.32139,-2.69533 -3.39814,-1.55739 -6.96206,-2.77799 -10.58279,-3.83918 -1.63749,-0.43701 -3.29042,-0.85606 -4.97481,-1.12277 -0.48455,-0.0767 -1.30709,-0.17249 -1.8008,-0.23253 -1.44859,-0.14294 -2.90614,-0.27896 -4.36292,-0.18043 -1.0641,0.11382 -1.84536,0.39089 -2.68671,0.98648 -0.64825,0.53207 -1.20941,1.14706 -1.74561,1.77063 -0.38713,0.43619 -0.72713,0.90393 -1.06453,1.37165 -0.12626,0.21164 -0.0707,0.10468 -0.16776,0.32035 0,0 0.0498,-0.0207 0.0498,-0.0207 v 0 c 0.0973,-0.21502 0.0417,-0.10837 0.16806,-0.31945 0.33743,-0.46741 0.67681,-0.93516 1.06399,-1.37099 0.53616,-0.62332 1.09728,-1.23818 1.74598,-1.76948 0.28006,-0.19775 0.42061,-0.31652 0.73606,-0.46416 0.57443,-0.26886 1.22312,-0.39396 1.85798,-0.47588 1.45682,-0.0995 2.91454,0.0362 4.36325,0.17899 0.49135,0.0597 1.31896,0.1559 1.80103,0.23202 1.68508,0.26608 3.33888,0.68412 4.97709,1.12071 3.6208,1.06017 7.18435,2.28083 10.5818,3.83892 1.8082,0.84244 3.60066,1.70848 5.3162,2.69803 0,0 0.0462,-0.0269 0.0462,-0.0269 z" />
  </g>
</svg>
